<svg xmlns="http://www.w3.org/2000/svg" width="1008.851" height="651.45"><style><![CDATA[.B{stroke-opacity:.94}]]></style><g stroke="#006b98" class="B"><rect width="1071.447" height="691.526" x="-29.962" y="-23.298" ry=".268" fill="#006b9f" stroke-width=".756"/><g fill="#207397" stroke-width=".5"><path d="M620.124 393.976l.5-.15.104.838 2.194-.48 2.32.08 1.694.1 1.92-2.072 2.1-1.974 1.772-1.908.534 1.056.38 2.437-1.433.012-.23 1.997.496.425-1.27.6-.008 1.245-.817 1.256-.073 1.22-.565.638-8.428-1.524-1.075-3.08zm27.006-36.82l2.86 1.3 2.115-.456.585-1.557 2.213-.52 1.58-1.052.56-2.785 2.363-.678.44-1.252 1.323.94.845.1 1.56.023 2.115.74.857.427 2.03-1.126.946.677.904-1.6 1.676.074.43-.518.297-1.428 1.207-1.238 1.518.8-.305 1.084.848.17-.26 2.956 1.1 1.143.978-.733 1.244-.347 1.747-1.57 1.93.26 2.892.006.5 1.007-1.632.392-1.425.645-3.218.405-3 .73-1.636 1.508.662 1.46.32 1.704-1.397 1.43.117 1.302-.77 1.214-2.667-.105 1.102 2.22-1.784.844-1.2 2.004.154 1.98-1.095.924-1.037-.306-2.143.428-.307.914-2.088-.005-1.562 1.843-.1 2.75-3.643 1.335-1.953-.282-.568.702-1.676-.408-2.804.48-4.698-1.637 2.543-2.93-.23-2.096-2.124-.552-.22-2.085-.918-2.644 1.2-1.827-1.22-.495.77-2.45zM533.235 334.9l-.356 1.273.398 1.594 1.163.9-.056.968-.9.532-.17 1.2-1.304 1.765-.476-.254-.056-.8-1.553-1.225-.244-1.75.237-2.528.383-1.16-.473-.6-.188-1.196 1.216-1.865.178.715.754-.336.597 1.016.67.386zm64.468 2.846l3.896-.58.58.974 1.068.64-.564.924 1.493 1.258-.8 1.162 1.2.988 1.26.593.062 2.496-1.015.106-1.145-2.08.013-.557-1.24.008-.83-.973-.583.1-1.105-1.063-2.085-.908.27-1.787zM521.28 480.038l.7 2.088.805 1.683.645.908 1.074 1.47 1.854-.228.925-.396 1.55.397.42-.703.704-1.637 1.74-.1.15-.486 1.43-.01-.244 1 3.402-.024.05 1.768.568 1.086-.413 1.698.206 1.735.935 1.05-.15 3.37.694-.26 1.22.07 1.737-.425 1.277.167.296.88-.32 1.38.493 1.335-.418 1.068.24.986-5.838-.036-.13 9.158 1.892 2.377 1.83 1.823-5.153 1.192-6.788-.414-1.943-1.4-11.366.126-.424.205-1.672-1.32-1.818-.087-1.678.497-1.35.555-.264-1.833.388-2.552.967-2.645.146-1.236.9-2.588.668-1.173 1.6-1.87.9-1.27.294-2.107-.147-1.6-.838-1.013-.747-1.716-.7-1.694.15-.586.862-1.117-.85-2.718-.574-1.88-1.405-1.774.267-.544 1.157-.376.813.052.983-.336zm-10.906-.54l-.713.296-.75-2.104 1.132-1.207.847-.47 1.05.96-1.02.587-.458.72zM291.85 649.16l-2.664.245-1.43-1.726-1.7-.13-3.002-.003-.002-10.568 1.077 2.148 1.402 3.525 3.645 2.865 3.925 1.207zm1.5-122.438L295 528.9l1.094-2.426 3.197.125.453.644 5.155 4.945 2.292.464 3.426 2.262 2.888 1.202.402 1.362-2.76 4.73 2.827.854 3.15.48 2.217-.505 2.543-2.398.458-2.743 1.4-.593 1.407 1.8-.057 2.5-2.36 1.73-1.883 1.282-3.165 3.078-3.74 4.372-.7 2.594-.75 3.365.028 3.297-.608.742-.217 2.165-.192 1.76 3.56 2.914-.383 2.368 1.752 1.507-.143 1.7-2.694 4.516-4.157 1.913-5.624.746-3.08-.36.6 2.147-.574 2.72.518 1.85-1.682 1.3-2.874.512-2.696-1.347-1.083.967.4 3.7 1.893 1.135 1.535-1.2.835 1.962-2.582 1.18-2.25 2.383-.412 3.907-.663 2.107-2.648.01-2.198 2.035-.804 3.013 2.757 2.982 2.68.83-.964 3.726-3.312 2.375-1.822 5.025-2.56 1.72-1.15 2.06.905 4.64 1.866 2.633-1.182-.23-2.6-.715-6.775-.608-1.162-2.632.054-3.332-1.867.284-.988-1.596-.245-4.6 2.15-1.878.9-2.68-.326-2.112 1.486-3.52 1.024-5.35-.3-2.33 1.224-.748-.3-1.478-1.3-.782.924-1.63-1.266-1.462-.655-4.395 1.127-.767-.474-4.543.66-3.75.75-3.223 1.68-1.3-.853-3.462-.01-3.217 2.123-2.263-.065-2.868 1.6-3.313.007-3.086-.728-.6-1.292-5.694 1.728-3.343-.265-3.115 1.002-2.896 1.836-2.963 1.98-1.95-.84-1.225.585-1-.1-5.143 3.054-1.5.962-3.16-.34-.758 2.336-2.722zM523.1 310.107l-.213 1.704-1.58.008.544.9-.93 2.647-.535.7-2.452.1-1.415.922-2.316-.314-4-1.05-.626-1.424-2.77.712-.327.777-1.698-.58-1.43-.1-1.27-.747.43-1.007-.108-.734.846-.228 1.42 1.148.4-1.1 2.473.177 2.004-.744 1.345.127.874.85.26-.704-.397-2.72 1.007-.534 1-1.95 2.083 1.364 1.577-1.735.987-.32 2.177 1.298 1.317-.22 1.292.8-.225.535zm360.068 278.307l2.7 1.277 1.526-.508 2.188-.7 1.682.248.2 4.425-.96 1.3-.3 3.064-.98-1.047-1.946 2.675-.58-.208-1.725-.12-1.73-3.276-.384-2.496-1.617-3.254.07-1.695zm-5.15-86.063l1 2.254 1.8-1.084.93 1.218 1.346 1.125-.288 1.28.598 2.484.426 1.452.706.355.76 2.495-.27 1.52.908 1.995 3.038 1.542 1.98 1.407 1.88 1.292-.367.72 1.604 1.872 1.1 3.25 1.12-.662 1.137 1.306.686-.464.483 3.208 2 1.87 1.302 1.167 2.2 2.488.788 2.487.072 1.774-.193 1.937 1.336 2.676-.16 2.8-.485 1.48-.757 2.87.057 1.86-.555 2.34-1.238 2.996-2.077 1.63-1.023 2.6-.936 1.666-.83 2.932-1.082 1.707-.7 2.583-.362 2.4.144 1.1-1.607 1.224-3.14.128-2.588 1.454-1.288 1.38-1.694 1.54-2.322-1.584-1.718-.63.436-1.85-1.533.67-2.455 2.582-2.424-.97-1.6-.564-1.604-.254-2.714-1.027-1.813-2.175-.52-2.655-.65-1.752-1.378-1.398-2.697-.414.922-1.66-.68-2.522-1.37 2.35-2.495.627 1.467-1.885.425-1.953 1.083-1.646-.225-2.472-2.28 2.85-1.752 1.15-1.074 2.693-2.2-1.396.087-1.8-1.754-2.43-1.48-1.247.527-.766-3.598-2-1.97-.094-2.696-1.597-5.02.3-3.63 1.175-3.2 1.1-2.676-.22-2.972 1.696-2.432.766-.54 1.75-1.035 1.363-2.38.082-1.76.3-2.478-.613-2.017.367-1.925.154-1.668 1.8-.817-.153-1.406.96-1.348 1.082-2.046-.134-1.88-.001-2.975-2.168-1.507-.642.06-1.927 1.393-.456.476-.76-.1-1.196.343-2.302-.313-1.948-1.482-3.294-.46-1.845.12-1.83-1.116-2.08-.07-.934-1.242-1.262-.35-2.468-1.603-2.477-.388-1.327 1.23 1.346-.946-2.88 1.4.898.83 1.203-.047-1.6-1.388-2.43-.27-.968-.65-.917.305-1.767.574-.75.383-1.52-.3-1.768 1.16-2.165.2 2.292 1.185-2.07 2.278-1.002 1.366-1.276 2.143-1.095 1.274-.232.772.367 2.2-1.1 1.7-.33.425-.65.742-.27 1.55.07 2.947-.867 1.524-1.313.716-1.575 1.645-1.5.126-1.17.073-1.6 1.962-2.474 1.18 2.514 1.193-.582-.998-1.375.88-1.4 1.237.63.34-2.205 1.532-1.42.676-1.138 1.4-.5.044-.804 1.232.335.05-.722 1.233-.412 1.355-.387 2.07 1.318 1.556 1.705 1.755.02 1.783.27-.594-1.582 1.343-2.303 1.264-.75-.437-.715 1.218-1.632 1.698-1.006 1.435.34 2.355-.537-.05-1.455-2.054-.936 1.493-.413 1.857.704 1.5 1.167 2.36.73.8-.288 1.738.875 1.638-.815 1.054.248.656-.547 1.287 1.4-.747 1.528-1.064 1.155-.964.096.325 1.146-.824 1.435-.996 1.414.2.814 2.23 1.596 2.16.928 1.443 1 2.027 1.722.8-.003 1.468.746.426.9 2.677.992 1.852-1 .55-1.566.568-1.3.35-1.6.853-2.3-.4-1.394.202-.837-.324-1.643.367-2.157.538-.58-.437-.953.678-1.5.532-1.563.07-.8 1.042-1.063.8 1.388.194 1.783.7.344.12 1.197 1.02 1.452.2 1.62z"/><path d="M601.682 342.716l.83.973 1.24-.008-.013.558 1.145 2.08-1.923-.477-1.417-1.66-.445-1.366zm6.65-5.433l1.24.253.48-.945 1.674-1.506 1.474 1.965 1.426 2.623 1.307.172.863.988-2.3.294-.487 2.823-.482 1.263-1.028.84.075 1.77-.698.178-1.75-1.87.967-1.78-.83-1.062-1.05.268-3.307 2.656-.062-2.496-1.26-.593-1.2-.988.8-1.162-1.494-1.258.564-.924-1.068-.64-.58-.974.687-.607 2.1 1.068 1.5.22.382-.435-1.38-2.017.728-.517.788.126zm-79.54-13.923l1.016-.01-.702 1.727 1.352 1.5-.4 1.82-.66.17-.524.352-.912.893-.4 2.1-2.48-1.443-1.06-1.602-1.068-.853-1.3-1.447-.608-1.2-1.373-1.834.586-1.64 1.007.9.607-.822 1.3-.088 2.4.658 1.938-.055zm206.552 77.3l-.058 2.152-.978-.453.183 2.403-.802-1.556-.16-1.525-.534-1.447-1.17-1.756-2.583-.12.255 1.245-.88 1.674-1.193-.6-.407.546-.794-.327-1.085-.27-.437-2.485-.97-2.28.476-1.84-1.725-.82.622-1.12 1.753-1.147-2.024-1.635 1-2.107 2.22 1.343 1.34.153.247 2.15 2.668.423 2.6-.046 1.616.526-1.292 2.594-1.255.177-.865 1.734 1.535 1.572.458-1.94.774-.01zm-250.546-104.5l2.053.352 2.598-.93 1.775 1.956 1.54 1.036-.318 2.968-.73.165-.304 2.43-2.453-1.973-1.438.338-1.958-2.057-1.303-1.768-1.303-.072-.406-1.562zm-17.223 140.495l-1.92-.73-1.314.107-.98.7-1.26-.596-.5-.936-1.26-.617-.186-1.646.765-1.204-.065-.963 2.226-2.36.4-1.96.77-.7 1.355.386 1.176-.583.38-.737 2.175-1.287.536-.9 2.62-1.196 1.544-.4.7.553 1.798-.013-.222 1.396.376 1.3 1.58 1.872.088 1.385 3.232.648-.063 1.952-.613.85-1.37.266-.572 1.242-.964.32-2.455-.06-1.297-.226-.905.458-1.24-.207-4.87.134-.066 1.608zm71.455-110.843l.807 1.598 1.086-.284 2.155.604 4.117.204 1.4-.988 3.3-.904 2.04 1.412 1.65.406-1.455 1.596-1.024 2.73.904 2.155-2.414-.505-2.856 1.183-.03 1.86-2.55.35-1.975-1.3-2.245 1.024-2.074-.108-.2-2.473-1.404-1.2.46-.534-.304-.45.47-1.2 1.07-1.195-1.362-1.66-.252-1.415z"/><path d="M557.768 476.185l-.178-3.367-.705-1.268 1.702.22.86-1.587 1.5.182.162 1.098.604.632.026.907-.692.584-1.1 1.455-1.018 1.012zm-74.718-30.013l-2.317.328-.7-1.934.128-6.46-.565-.582-.106-1.386-.974-1-.857-.836.357-1.493.964-.32.572-1.242 1.37-.266.613-.85.94-.834 1.005-.008 2.138 1.64-.1.944.63 1.684-.552 1.14.296.76-1.36 1.75-.864.865-.528 1.778.07 1.8zm312.664 4.848l1.1-1.046 2.386-1.532-.3 3.163-1.34-.1-.6.95zM299.3 526.6l-3.198-.124L295 528.9l-1.65-2.178-3.67-.732-2.336 2.722-2.023.415-1.098-4.15-1.507-3.348.883-2.868-1.47-1.25-.374-2.122-1.374-1.992 1.768-3.146-1.206-2.437.643-.972-.502-1.07 1.096-1.44.054-2.443.14-2.012.602-.967-2.424-4.58 2.085.24 1.444-.062.625-.858 2.452-1.148 1.477-1.063 3.67-.478-.3 2.12.345 1.1-.225 1.904 3.044 2.552 3.14.47 1.104 1.067 1.895.567 1.16.832 1.764-.03 1.63.85.123 1.66.547.84.036 1.243-.817.048 1.078 3.37 5.375.12-.4 1.68.3 1.15 1.532.82.662 1.82-.498 2.316-.768 1.293.27 1.687-.877.613-.048-.914-2.612-1.514-2.604-.04-4.886.86-1.345 2.6-.07 1.604-1.105 3.6z"/><path d="M313.93 552.044l3.74-4.372 3.165-3.078 1.883-1.282 2.36-1.728.057-2.5-1.407-1.788-1.388.593.55-1.783.38-1.817v-1.682l-1.008-.553-1.052.493-1.046-.136-.327-1.172-.26-2.778-.525-.902-1.894-.815-1.144.6-2.96-.578.186-4.065-.83-1.654.877-.613-.27-1.687.768-1.293.498-2.316-.662-1.82-1.532-.82-.3-1.15.4-1.68-5.375-.12-1.078-3.37.817-.048-.036-1.243-.547-.84-.123-1.66-1.63-.85-1.764.03-1.16-.832-1.895-.567-1.104-1.067-3.14-.47-3.044-2.552.225-1.904-.345-1.1.3-2.12-3.67.478-1.477 1.063-2.452 1.148-.625.858-1.444.062-2.085-.24-1.582.488-1.275-.326.187-4.3-2.3 1.666-2.475-.073-1.06-1.508-1.86-.164.593-1.212-1.558-1.714-1.167-2.533.74-.514v-1.185l1.694-.8-.28-1.516.715-.974.204-1.306 3.206-1.902 2.298-.538.376-.42 2.527.13 1.26-7.647.066-1.208-.44-1.595-1.244-1.016.014-2.024 1.58-.46.56.3.095-1.067-1.643-.288-.034-1.744 5.462.063.928-.96.78.884.546 1.643.53-.343 1.543 1.473 2.18-.18.543-.853 2.085-.65 1.155-.457.325-1.18 2.003-.793-.15-.586-2.376-.24-.4-1.757.113-1.87-1.255-.724.526-.257 2.076.357 2.23.698.8-.66 2.017-.433 3.136-1.046 1.025-1.066-.37-.8 1.458-.124.652.644-.365 1.228.964.423.643 1.298-.777.983-.447 2.374.718 1.4.203 1.3 1.725 1.307 1.376.138.3-.545.887-.12 1.268-.5.912-.74 1.55.237.683-.1 1.525.228.252-.57-.47-.554.28-.807 1.13.248 1.325-.285 1.606.6 1.224.575.868-.756.627.116.383.785 1.342-.2 1.075-1.06.86-2.053 1.66-2.555.955-.132.694 1.544 1.572 4.877 1.5.46.075 1.923-2.108 2.293.872.84 4.956.437.1 2.792 2.13-1.828 3.528 1 4.657 1.702 1.368 1.632-.46 1.543 3.26-.86 5.457 1.475 4.2-.1 4.145 2.3 3.58 3.13 2.16.806 2.398.113 1.016.882.952 3.566.465 1.7-1.116 4.652-1.427 1.843-3.952 3.94-1.786 3.215-2.076 2.475-.7.056-.783 2.108.2 5.398-.782 4.478-.298 1.927-.886 1.157-.497 3.94-2.843 3.878-.477 3.093-2.27 1.304-.657 1.8-3.046-.007-4.4 1.165-1.975 1.353-3.14.9-3.3 2.44-2.373 3.06-.408 2.322.466 1.727-.524 3.182-.636 1.548-1.96 1.754-3.1 5.676-2.465 2.593-1.907 1.54-1.278 3.154-1.855 1.914-.776-1.895 1.236-1.578-1.622-2.248-2.2-1.815-2.886-2.1-1.04.095-2.813-2.504zm-55.823-156.586l-.688.15-.712-1.758-1.05-.887.6-1.95.844.124.98 2.55zm-.8-8.7l-3.056.5-.196-1.154 1.318-.25 1.85.094zm2.3-.032l-.484 2.2-.516-.397.046-1.625-1.256-1.234-.006-.36zm473-3.696l1.142 1.005-.197 1.925-2.287.093-2.368-.2-1.762.5-2.55-1.187-.06-.63 1.855-2.34 1.515-.803 2.003.733 1.48.077zM547.42 516.2l.564.525.882 1.706 3.173 3.255 1.2.32.007 1.05.825 1.895 2.168.46 1.787 1.358-3.967 2.22-2.517 2.265-.934 2.032-.843 1.15-1.526.245-.492 1.47-.284.963-1.793.72-2.282-.153-1.34-.866-1.18-.375-1.368.716-.686 1.483-1.328.934-1.402 1.4-2 .32-.625-1.096.258-1.893-1.662-2.933-.757-.462-.001-8.86 2.764-.105.082-10.57 2.088-.097 4.322-1.026 1.072 1.208 1.8-1.15.85-.006 1.58-.66.504.22z"/><path d="M541.35 284.33l2.7.032 3.044-1.797.65-2.724 2.3-1.562-.264-2.207 1.705-.835 3.012-1.93 2.952 1.256.398 1.236 1.472-.593 2.74 1.183.274 2.308-.6 1.314 1.757 3.153 1.142.87-.17.858 1.9.83.808 1.254-1.1 1.022-2.262-.162-.54.435.66 1.54.7 2.937-2.407.27-.864.995-.18 2.265-1.115-.433-2.53.215-.735-1.05-1.05.783-1.055-.65-2.208-.1-3.13-1.084-2.832-.355-2.173.1-1.536 1.225-1.34.175-.053-2.013-.865-2.117 1.68-.94.017-1.848-.778-1.78zm-315.8 128.882l-.022-.43.34-.134.5.346 1.005-1.77.533-.038.01.43.53.013-.046.798-.454 1.266.245.453-.293 1.044.176.28-.324 1.47-.55.77-.507.093-.555 1.004-.837.001.22-3.28zM199.175 96.487l-.222-5.902 3.63.58 1.634.955 3.35 4.925-.76 4.97-4.148 2.77-2.284-3.123zM212.4 109.13l.334-1.5-1.968-2.448-5.646-.194.748 3.676 5.254.827zm36.348 46.956l3.085 5.103.812.574 3.07-1.275 3.02.2 2.98.276-.248-2.643-4.835-5.38-6.417-1.077-1.35.666zm-65.425-62.7l-2.708 4.188 6.242.516 4.615 4.438 4.58 1.498-1.092-5.68-2.145-6.726-7.582-5.353-5.504-2.044.204 5.687zM209.2 83.15l5.127-.116-2.216 4.002-.043 5.297 3.013 5.756 5.8 1.766 4.96-1 5.18-10.73 3.85-4.447-3.38-4.97-2.215-10.648-4.6-3.188-4.718-3.682-3.58-9.56-6.52.937 1.225 4.15-2.874 1.246-1.943 5.322-1.944 7.458 1.776 7.26zm-63.75 53.377l3.92 1.953 12.667-1.298-5.824 4.77.357 3.43 4.264-.236 7.074-4.58 9.495-1.673 1.706-5.218-.493-5.57-2.938-.502-2.497 1.93-1.1-4.133-.945-5.7-2.895-1.415-2.57 4.4 4 11.05-4.898-.85-4.98-6.788-7.9-3.998-2.64 3.32zm22.563-42.066l-3.646-2.897-1.504-.66-2.876 4.284-.045 2.002 4.656.014zm-1.468 12.358l.932-3.985-3.954-2.125-4.094 1.385-2.27 4.26 4.16 4.207zm29.1 33.24l4.623-1.106 1.277-8.252-.087-5.945-2.144-5.56-.216 1.596-3.943-.7-4.223 4.087-3.017-.37.178 8.924 4.596-.868-.058 6.465zm-3.286 45.603l-5.06-3.927-4.7-4.208-.87-6.18-1.76-8.925-3.14-3.84-2.787-1.547-2.467 1.417 1.992 9.586-1.4 3.73-2.294-8.98-2.562-3.105-3.168 4.814-3.9-4.76-6.24 2.868 1.4-4.463-2.865-1.875-7.507 5.838-1.952 3.7-2.354 6.77 4.896 2.317 4.325-.122-6.503 3.46 1.48 3.13 3.976.17 6-.67 5.422 1.96-3.66 1.445-3.953-.372-4.328 1.4-1.865.874 3.455 6.354 2.5-.883 3.828 2.145 1.52 3.65 4.988-.725 7.105-1.157 5.264-2.646 3.26-.48 4.823 2.115 5.074 1.22.945-2.86-1.8-3.05 4.604-.645zm7.745-.98l-1.96 3.54-2.468 2.486 3.83 3.54 2.284-.854 3.78 2.358 1.743-2.732-1.7-3.03-.84-1.526-1.682-1.458zM182.5 155.236l-2.13-2.175-3.757.397-.953 1.384 4.374 6.752zm28.687 13.172l3.008-6.927 3.343-1.848 4.2-8.743-5.356-2.47-5.842-.357-2.782 2.77-1.465 4.23-.043 4.817 1.75 8.188zm17.155-23.005l5.756-.185 8.043-1.614 3.6 1.275 4.18-2.26 1.75-2.84-.626-4.52-3.003-4.23-4.556-.8-5.7.97-4.457 2.44-4.1-.94-3.782-.495-1.78-2.702-3.217-2.614.64-4.433-2.42-3.982-5.52.027-3.113-3.988-5.78-.8-1.055 5.096 3.25 3.745 5.8 1.454 2.815 5.095.34 5.602.97 6 7.452 3.417zm-89.02-18.27l5.212-5.053 2.62-.587 2.16-4.228.385-9.77-3.846 1.914-4.3-.18-5.758 8.2-4.76 8.977 3.8 2.5zm72.178 16.173l1.525-4.14-1.023-3.458-2.448-3.918-4.03 3.018-1.493 4.924 3.4 2.787zm-8.308 11.437l-.73-2.88-5.002 1.264-3.344-2.107-3.318 4.804 3.1 6.282-5.725-1.174-.056 3 6.968 7.046 1.94 3.38 2.7.73 4.598-3.413.504-8.2-4.244-4.074zM129.2 308.482l-1.157-2.344-2.8-1.77-1.386-2.053-.954-1.505-2.635-.464-1.72-.667-2.943-.962-.242 1.02 1.08 2.38 2.886.78.505 1.23 2.5 1.502.84 1.513 4.604 1.92zm121.706-77.63l-2.002-2.1-2.063.498-.25-3.062-3.212-2.035-3.07-2.267-1.63-1.753-1.435 1.034-.52-2.963-2.026-.555-.956 6.134-.358 5.107-2.438 3.136 3.8-.604.963 3.65 4-3.225 2.78-3.38 1.575 2.863 4.363 1.5zM130.37 178.3l7.38-4.18v-3.874l3.477-6.407 6.875-6.7 3.525-2.467-3-4.2-2.723-2.953-7.162-.572-4.004-2.156-9.477 1.625 2.742 6.225-2.432 6.43-1.942 6.866-1.203 3.858 6.474 4.694zm134.237 27.303l.316-1-.03-3.175-2.2-2.084-2.57 1.047-1.2 4.167.7 3.56 3.143-.36zm23.82 7.546l4.408 6.6 3.45 2.855 4.92-7.87.873-4.933-4.4-.474-4.03-6.696-4.45-1.64-6.604-4.968 5.148-3.634-2.652-7.542-2.442-3.354-6.77-3.352-2.922-5.55-5.207 2-.363-3.863-3.862-4.322-6.22-4.714-2.652 3.714-5.547 2.662.417-6.064-4.8-10.052-7.106 4.063-2.6 7.7-2.2-5.923 2.063-6.37-7.24 2.65-2.883 4-2.155 8.42.9 9.05 3.983.038-2.932 3.924 2.332 2.96 4.547 1.255 5.93 2.417 10.204 1.818 5.083-1.044 1.5-2.42 2.2 2.788 2.47.462 2.968 4.965-1.796 1.98 5.68 2.626 4.295 3.678 1.08 2.55.77 3.24-3.627 6.925-.98 3.443.937 2.423-5.772.86-5.27.12-1.847 4.87 2.372 2.226 8.107-1.03-.045-1.9 4.083 3.148 4.183 3.276-.98 1.773 3.398 3.02 6.017 3.535 7.604 2.4-.456-2.1-2.92-3.672-3.963-5.373 7.033 4.997 3.536 1.66.966-4.438-1.825-6.298-1.155-1.73-3.806-3.035-2.95-3.9.354-3.942zm-65.83-161.566l2.336 7.293 4.957 5.88 9.8-1.088 6.313 1.968-4.375 6.053-2.214-1.776-7.664-.712 1.2 8.314 3.96 6.036-.795 5.2-4.972 3.462-2.27 5.47 4.548 2.646 3.823 8.55-7.497-5.703-1.7.94 1.38 9.377-5.184 2.833.352 5.85 5.3.626 4.173 1.438 8.236-1.845 7.327 3.27 7.492-7.2-.06-3.02-4.8.482-.392-2.84 3.917-3.83 1.33-5.15 4.332-3.83 2.664-4.762-2.32-7.103 1.938-2.65-3.865-1.887 8.5-1.628 1.787-3.147 5.784-2.604 4.795-13.473 4.57-4.943 6.616-11.124-6.104.098 2.535-4.303 6.784-3.993 6.84-8.903.123-5.73-5.13-6.042-6.02-2.93-7.494-1.82-6.072-1.5-6.073-1.503-8.095 3.977-1.5-2.527-8.57.976-5.028 2.57-3.7 3.65-2.133 11.744-3.028-5.983-3.477-1.142-4.122 7.97-5.5 3.348-3.274.664-4.17 3.837.614 6.646zm74.4 265.006l-.982-1.984-1.06 1.262.7 1.36 3.556 1.713 1.04-.262 1.38-1.656-2.6.1zm-57-77.867l.614 1.63 1.98.138 3.282-3.337.06-1.188-3.85-.06zm62.128 66.44l-2.867-1.8-3.687-1.087-.97.365 2.607 2.04 3.634 1.343 1.365-.076zm24.9 4.795l-.357-2.235-1.962.723.868-3.113-2.796-1.32-1.293 1.047-2.488-1.18.984-1.5-1.883-.933-1.83 1.47 1.855-3.825 1.497-2.8.542-1.217-1.3-.197-2.433 1.547-1.738 2.53-2.897 6.917-2.354 2.558 1.22 1.144-1.747 1.473.43 1.23 5.442.126 3.013-.248 2.7 1.005-1.98 1.932 1.673.142 3.253-3.576.78.528-.608 3.367 1.843.77 1.27-.15 1.18-3.614zm-21.196 4.763l-2.8 4.56-4.633.58-3.642-2-.915-3.07-.9-4.462 2.648-2.83-2.482-2.1-4.195.426-5.88 3.53-4.5 5.452-2.38.672 3.227-3.804 4.044-5.574 3.575-1.9 2.348-3.112 2.904-.303 4.208.03 5.997.92 4.74-.708 3.528-3.624 4.62-1.587 2.012-1.58 2.035-1.706-.205-5.188-1.126-1.772-2.184-.628-1.1-4.047-1.8-1.548-4.47-1.264-2.52-2.822-3.73-2.826 1.127-3.197-3.1-6.26-3.65-6.893-2.184-4.983-1.855 2.6-2.682 6.053-4.06 2.973-2.032-3.155-2.56-.847-.932-7 .084-4.797-5-.438-.85-2.266-3.453-3.436-2.6-2.04-2.322 1.583-2.883-.585-4.807-1.646-1.952 1.397.937 9.177 1.222 5.116-3.3 5.75 3.406 4.022 1.904 4.44.23 3.422-1.554 3.504-3.177 3.46-4.5 2.28 1.978 2.53 1.464 7.402-1.517 4.676-2.16 1.458-4.172-4.283-2.03-5.168-.872-4.76.458-4.194-3.05-.474-4.63-.283-2.97-2.082-3.513-1.373-2.006-2.38-2.803-1.935-5.2-2.23-3.923 1.02-1.3-3.947-1.263-5-4.12-.902.155-6.4 1.087-4.483 3.04-6.6 3.43-4.902 3.262-.77.186-4.048 2.213-2.682 4.014-.424 3.252-4.392.818-2.897 2.703-5.725.836-3.5 2.9 2.107 3.9-1.076 5.5-4.964.357-3.54-1.977-3.98 2.086-4.057-.17-3.865-3.763-3.953-4.145-1.2-3.985-.624-.153 8.714-2.045 6.555-2.928 5.304-2.712-4.946.835-5.606-3.352-5.018-3.747 6.1.012-8-5.214-1.626 2.488-4.014-3.8-9.586-2.836-3.904-3.698-1.442-3.315 6.428-.225 9.343 3.272 3.292 3.004 4.906-1.268 7.708-2.255-.202-1.785 5.884.017-7.004-4.345-2.583-2.493 1.335.324 4.672-4.1-.178-4.353 1.173-4.954-3.353-3.13.598-2.818-4.114-2.263-1.84-2.243.773-3.413.355-1.8 2.614 2.862 3.187-3.05 3.725-3-4.423-2.388 1.302-7.568.873-5.068-1.6 3.945-3.736-3.782-3.902-2.747.5-3.86-1.323-6.562-2.9-4.288-3.373-3.396-.47-1.06 2.357-3.445 1.3-.38-6.15-3.733 5.505-4.74-7.32-1.938-.892-.626 3.905-2.092 1.904-1.926-3.393-4.6 2.048-4.2 3.55-4.165-.98-3.396 2.495-2.46 3.276-2.924-.717-4.414-3.8-5.23-1.936-.034 63.078 2.76.167 2.73 1.556 1.958 2.436 2.5 3.596 2.728-3.054 2.815-1.793L97.16 257l1.9 2.23 2.567 2.424 1.753 3.794 2.867 5.88 4.767 3.204.078 3.124-1.56 2.355.06 2.484 3.392 3.45.492 3.76 3.587 1.958-.4 2.8 1.562 3.958 5.078 1.825 2.003 1.887 5.428 4.227.376.01h77.6l.008-1.644.95-.02.498 2.345.872.718 1.958.26 2.863.672 2.72 1.303 2.27-.545 3.45 1.1 1.138-1.66 1.6-.663.623-1.032.632-.554 2.607.856 1.932.102.67.566.938 2.382 3.147.627-.495 1.182 1.1 1.212-.478 1.56 1.177.513-.587 1.372.752.125.527-.597.55.898 2.103.5 2.132.042 2.273.412 2.508.78.915 1.256 1.816 3.037-.903 1.3-2.28-.54-1.415-2.44.355 2.486-1.337 2.17.147 1.838-.23 1.074-1.815 1.267-1.318 2.1-.617 1.32 1.54.237 2.08-1.2 1.225-1.06.833-.173 1.542.382.746-.6 1.368-.48 2.443-.47v.002-.002l-.25-1.15-.134.044-.856.198-1.118-.363.84-1.317.855-.457 1.98-.565 2.37-.528 1.244.734.782-.85.9-.54.596.286.032.06 2.87-2.73 1.265-.726 4.26-.027 5.167-.003.28-.978.897-.2 1.2-.616.995-1.82.855-3.148 2.14-3.097.932 1.083 1.88-.7 1.245 1.187-.002 5.525 1.833 2.25 3.116-.483 4.488-.13-4.868 3.26.107 3.3 2.13.283 3.133-2.793 2.78-1.584 6.2-2.35 3.47-2.616-1.8-1.46zm-53.664-71.103l1.098-3.124-.713-1.233-1.148-.132-1.082 1.804-.13.413.736 1.77zM109.5 280.054l1.56-2.354zM561.957 453.86l-.17 3.262 1.124.377-.902 1-1.077.74-1.072 1.452-.6 1.295-.16 2.236-.65 1.064-.024 2.1-.806.777-.104 1.658-.385.215-.26 1.525.705 1.268.178 3.367.504 2.572-.28 1.455.56 1.626 1.626 1.57 1.514 3.542-1.104-.286-3.766.475-.752.337-.8 1.8.628 1.246-.498 3.35-.347 2.85.757.507 1.96 1.108.77-.518.234 3.08-2.146-.024-1.15-1.573-1.033-1.216-2.15-.398-.63-1.492-1.714.898-2.246-.397-.937-1.3-1.78-.262-1.314.07-.16-.883-.968-.07-1.277-.167-1.736.425-1.22-.07-.694.26.15-3.37-.935-1.05-.206-1.735.413-1.698-.568-1.086-.052-1.768-3.402.024.245-1-1.43.01-.15.486-1.74.1-.704 1.637-.42.704-1.55-.397-.925.395-1.854.228-1.074-1.47-.645-.908-.804-1.682-.692-2.088-8.274-.037-.983.336-.813-.052-1.157.376-.392-.868.713-.296.087-1.22.46-.72 1.02-.587.737.284.96-1.07 1.527.027.18.8 1.048.495 1.65-1.75 1.634-1.364.708-.893-.094-2.295 1.218-2.708 1.285-1.435 1.846-1.342.322-.9.07-1.02.457-.966-.147-1.58.35-2.47.55-1.74.84-1.5.167-1.685.252-1.947 1.1-1.418 1.502-.9 2.307.95 1.786 1.03 2.05.275 2.092.545.838-1.687.385-.215 1.278.28 3.12-1.395 1.107.6.907-.084.42-.68 1.042-.24 2.1.294 1.8.064.925-.296 1.7 2.307 1.26.34.75-.47 1.297.183 1.56-.6.666 1.192z"/><path d="M518.344 442.9l2.32-.212.516-.722.465.054.7.637 3.53-1.076 1.2-1.098 1.463-.984-.278-.992.79-.26 2.708.176 2.638-1.308 2.027-3.086 1.423-1.148 1.775-.485.318 1.215 1.617 1.77.008 1.153-.455 1.175.18.877.973.812 2.135 1.23 1.535 1.136.026.914 1.886 1.462 1.168 1.214.708 1.68 2.096 1.108.45.887-.925.296-1.8-.064-2.11-.294-1.042.24-.42.68-.907.084-1.107-.59-3.12 1.395-1.278-.28-.385.215-.838 1.687-2.092-.545-2.05-.275-1.786-1.03-2.307-.95-1.502.9-1.09 1.418-.252 1.947-1.804-.156-1.897-.47-1.67 1.48-1.47 2.595-.295-.808-.126-1.272-1.282-.897-1.035-1.44-.24-1.002-1.325-1.46.226-.833-.28-1.178.216-2.17.673-.51z"/><path d="M511.94 476.97l-1.05-.96-.848.47-1.13 1.207-2.303-2.96 2.135-1.54-1.057-1.844.96-.7 1.892-.342.223-1.235 1.498 1.338 2.475.118.86-1.317.354-1.853-.306-2.175-1.327-1.647 1.214-3.226-.7-.553-2.086.227-.784-1.44.204-1.216 3.538.1 2.267.735 2.228.66.2-1.505 1.47-2.595 1.67-1.48 1.897.47 1.804.156-.167 1.685-.84 1.5-.55 1.74-.35 2.47.147 1.58-.457.966-.07 1.02-.322.9-1.846 1.342-1.285 1.435-1.218 2.708.094 2.295-.708.893-1.634 1.364-1.65 1.75-1.048-.495-.18-.8-1.527-.027-.96 1.07zm-9.536-164.372l.108.734-.43 1.007 1.27.747 1.43.1-.222 1.67-1.236.684-2.075-.508-.607 1.63-1.335.128-.486-.64-1.572 1.364-1.352.2-1.207-.86-.962-1.77-1.34.634.04-1.838 2.05-2.303-.1-1.05 1.278.38.77-.707 2.385.03.576-.903zM467.495 449.7l-1.276.03-1.956-.547-1.798.032-3.32.488-1.947.807-2.776 1.025-.542-.073.216-2.302.268-.35-.086-1.102-1.187-1.173-.9-.187-.817-.77.6-1.245-.28-1.358.13-.816.445-.004.165-1.226-.217-.544.268-.4 1.042-.34-.693-2.257-.646-1.168.225-.96.56-.22.366-.258.776.426 2.165.023.516-.827.484.056.8-.32.435 1.2.654-.357 1.157-.42 1.26.617.5.936 1.26.596.98-.7 1.314-.107 1.92.73.744 4.012-1.182 2.36-.73 3.168 1.216 2.412zM283.063 636.98l.002 10.568 3.002.003 1.7.13-.93 1.978-2.404 1.532-1.378-.157-1.66-.4-2.036-1.48-2.937-.707-3.528-2.7-2.864-2.573-3.862-5.254 2.312.974 3.937 3.133 3.72 1.704 1.447-2.174.9-3.202 2.584-1.907zm1.162-112.002l1.098 4.15 2.023-.415.34.758-.962 3.16-3.054 1.5.1 5.143-.585 1 .84 1.225-1.98 1.95-1.836 2.963-1.002 2.896.265 3.115-1.728 3.343 1.292 5.694.728.6-.007 3.086-1.6 3.313.065 2.868-2.123 2.263.01 3.217.853 3.462-1.68 1.3-.75 3.223-.66 3.75.474 4.543-1.127.767.655 4.395 1.266 1.462-.924 1.63 1.3.782.3 1.478-1.224.748.3 2.33-1.024 5.35-1.486 3.52.326 2.112-.9 2.68-2.15 1.878.245 4.6.988 1.596 1.867-.284-.054 3.332 1.162 2.632 6.775.608 2.6.715-2.495-.034-1.35 1.128-2.53 1.67-.452 4.378-1.187.1-3.164-1.535-3.2-3.25-3.488-2.632-.878-2.874.794-2.623-1.4-2.937-.36-7.344 1.192-4.033 2.96-3.187-4.256-1.2 2.67-3.57.955-6.557 3.116 1.374 1.465-7.97-1.88-1.003-.876 4.75-1.77-.54.88-5.42.956-6.843 1.288-2.478-.807-3.495-.23-3.977 1.182-.114 1.72-5.596 1.938-5.432 1.187-4.968-.646-4.912.837-2.67-.336-3.955 1.64-3.867.505-6.038.9-6.374.877-6.747-.205-4.874-.584-4.153 1.442-.75.75-1.5 1.374 1.992.375 2.122 1.47 1.25-.883 2.868z"/><path d="M512.166 457.323l-.35-.152-1.66.36-1.704-.373-1.332.183-4.563-.064.4-2.2-1.095-1.844-1.28-.474-.57-1.25-.718-.4.032-.773.722-1.98 1.334-2.702.8-.025 1.67-1.642 1.063-.046 1.574 1.153 1.927-.945.262-1.167.63-1.132.434-1.424 1.5-1.16.566-1.975.595-.63.395-1.47.742-1.808 2.36-2.197.15-.946.305-.514-1.1-1.136.1-.9.792-.164 1.115 1.828.187 1.9-.102 1.886 1.526 2.575-1.566-.028-.8.202-1.278-.284-.6 1.334 1.656 1.647 1.22.478.394 1.166.885 1.94-.44.76-1.4 2.843-.673.5-.216 2.17.28 1.178-.226.833 1.325 1.46.24 1.002 1.035 1.44 1.282.897.126 1.272.295.808-.2 1.505-2.228-.66-2.267-.735zm272.712-46.663l-2.423 1.412-2.3-.9-.08-2.535 1.382-1.34 3.063-.83 1.612.07.627 1.13-1.232 1.3zm48.558-107.52l4.88 1.38 3.32 3.035 1.135 3.945 4.26.005 2.43-1.647 4.634-1.24-1.474 3.76-1.1 1.512-.96 4.462-1.886 3.888-3.402-.703-2.407 1.4.74 3.357-.404 4.553-1.432.103.017 1.93-1.8-2.244-1.114 2.13-4.33 1.625.438 1.975-2.424-.136-1.33-1.172-1.927 2.644-3.1 1.984-2.283 2.347-3.92 1.057-2.064 1.7-3.02.98 1.5-1.668-.587-1.4 2.22-2.454-1.48-1.93-2.444 1.302-3.165 2.544-1.728 2.34-2.75.173-1.43 1.676 1.48 2.4 2.294.582.095 1.583 2.218 1.025 3.143-2.513 2.5 1.374 1.813.093.455 1.836-3.97.974-1.3 1.872-2.727 1.728-1.44 2.393 3.02 1.864 1.102 3.307 1.706 3.046 1.904 2.53-.046 2.426-1.76.887.67 1.725 1.65 1-.43 2.6-.712 2.518-1.567.284-2.047 3.407-2.27 4.086-2.604 3.676-3.855 2.818-3.9 2.553-3.16.347-1.714 1.34-.97-.98-1.586 1.498-3.92 1.504-2.967.46-.957 3.15-1.554.174-.735-2.162.664-1.157-3.762-.96-1.325.488-2.823-.778-1.335-1.222.443-1.738-2.563-.553-1.352-1.138-2.4 1.615-2.726.35-2.236-.016-1.505.737-1.453.442.424 3.433-1.495-.082-.252-.703-.085-1.24-2.057.874-1.214-.552-2.082-1.128.816-2.507-1.775-.587-.67-2.8-2.96.506.337-3.635 2.655-2.58.113-2.566-.083-2.398-1.224-.75-.937-1.86-1.64.235-3.023-.474.947-1.334-1.314-1.986-2 1.346-2.352-.785-3.232 2.03-2.552 2.355-2.262.395-1.228-.85-1.48-.077-2.004-.732-1.515.803-1.854 2.34-.235-2.48-1.7.665-3.27-.3-3.172-.725-2.275-1.393-2.18-.627-.94-1.533-1.575-.46-2.83-2.094-2.248-.993-1.162.773-3.896-2.265-2.755-2.065-.786-3.63 2.012.445.092-1.694-1.115-1.708.284-2.744-3.014-4-4.6-1.4-.83-2.66-2.07-1.627-.5-1.007-.42-2.012.098-1.38-1.703-.812-.92.36-.7-3.324.798-.83-.387-.85 2.677-1.726 1.938-.718 2.968.492 1.06-2.354 3.597-.44 1-1.478 4.42-2.03.394-.853-.224-2.165 1.924-.995-2.524-6.754 5.555-1.582 1.436-.886 2.022-7.262 5.563 1.353 1.56-1.86.134-4.186 2.33-.395 2.134-2.83 1.098-.352.736 2.97 2.356 2.23 4 1.565 1.935 3.32-1.08 4.728 1 1.73 3.332.678 3.776.552 3.388 2.448 1.732.433 1.277 3.568 1.646 2.27 3.1-.088 5.787.852 3.73-.528 2.768.565 4.148 2.3 3.393-.003 1.24 1.164 3.265-2.014 4.53-1.312 4.202-.144 3.276-1.337 2.012-2.05 1.963-1.297-.454-1.28-.896-1.5 1.473-2.538 1.577.358 2.882.8 2.794-2.1 4.275-1.546 2.055-2.662 1.974-1.156 4.072-.54 2.213.46.307-1.453-2.54-2.887-2.25-1.333-2.155 1.538-2.766-.647-1.587.528-.723-1.706 1.98-4.228 1.365-3.247 3.365 1.632 3.952-2.74-.026-1.93 2.53-4.725 1.56-1.45-.035-2.522-1.538-1.095 2.315-2.313 3.484-.845 3.718-.127 4.196 1.394 2.462 1.7 1.733 4.6 1.05 1.937.977 2.73zm-569.27 160.923l-1.2-.66-1.376-.922-.797.442-2.38-.386-.684-1.198-.522.044-2.805-1.6-.38-.865 1.046-.2-.124-1.396.658-1 1.4-.187 1.18-1.752 1.073-1.465-1.033-.664.53-1.62-.633-2.558.6-.735-.442-2.37-1.135-1.495.36-1.365.903.2.53-.835-.65-1.658.34-.412 1.448.1 2.104-1.968 1.155-.3.027-.934.517-2.392 1.608-1.316 1.767-.054.223-.592 2.194.237 2.206-1.435 1.093-.637 1.357-1.373.994.175.735.75-.544.96-1.8.477-.712 1.42-1.085.814-.815 1.053-.343 2.02-.777 1.652 1.447.2.36 1.296.62.62.222 1.133-.333 1.04.098.586.7.235.668.98 3.606-.27 1.63.357 1.973 2.413 1.133-.3 2.02.15 1.598-.32.992.48-.505 1.508-.626.94-.22 2.005.564 1.856.797.83.097.625-1.42 1.388 1.017.615.746.974.855 2.78-.53.343-.546-1.643-.78-.884-.928.96-5.462-.063.034 1.744 1.643.288-.095 1.067-.56-.3-1.58.46-.014 2.024 1.244 1.016.44 1.595-.066 1.208-1.26 7.647-1.404-1.484-.837-.066 1.8-2.84-2.147-1.306-1.683.24-1.013-.482-1.545.737-2.087-.35-1.652-2.92-1.298-.718-.895-1.314-1.865-1.32zM242.88 440.65l-1.522-.624-.568-.6.322-.5-.102-.623-.777-.675-1.103-.555-.965-.362-.185-.827-.735-.505.18.822-.56.675-.64-.784-.9-.28-.384-.57.017-.862.37-.892-.792-.4.643-.548.422-.366 1.847.752.645-.37.9.237.465.584.827.2.672-.602.7 1.54 1.084 1.14 1.317 1.206-1.085.253.016 1.136.584.42-.42.334.1.5-.234.57zm1.955-43.456l2.422.216 2.203.034 2.633 1.032 1.116 1.105 2.62-.34.993.7 2.375 1.862 1.745 1.35.923-.04 1.673.6-.204.84 2.066.123 2.12 1.218-.333.696-1.864.377-1.887.146-1.932-.234-4.015.3 1.88-1.657-1.143-.773-1.808-.2-.968-.86-.665-1.704-1.584.117-2.615-.805-.84-.63-3.655-.467-.98-.587 1.052-.754-2.75-.155-2.015 1.567-1.162.042-.402.734-1.388.328-1.2-.284 1.48-.93.607-1.088 1.268-.672 1.432-.6 2.123-.3zm325.72-38.654l1.894-1.46-2.55 1.024-2.02-.047-.405.825-.198.018-1.332.126.655 1.367 1.373.44 2.874-1.38-.088-.274zm-47.5-50.425l-1.292-.8-1.317.22-2.177-1.298-.987.32-1.577 1.735-2.083-1.364-1.583-1.836-1.43-1.033-.297-1.825-.5-1.296 2.038-.954 1.04-1.098 2.014-.858.703-.846.74.5 1.25-.464 1.33 1.43 2.096.385-.175 1.2 1.523.905.418-1.13 1.924.5.265 1.367 2.085.264 1.3 2.13-.836.005-.434.774-.644.186-.183.973-.537.202-.076.396-.957.44-1.242-.07z"/><path d="M503.322 279.177l.05 1.875 2.834 1.122-.03 1.697 2.85-.896 1.577-1.314 3.166 1.892 1.323 1.513.656 2.393-.782 1.244 1.018 1.65.694 2.45-.22 1.563 1.15 2.864-1.25.464-.74-.5-.703.846-2.014.858-1.04 1.098-2.038.954.5 1.296.297 1.825 1.43 1.033 1.583 1.836-1 1.95-1.007.534.397 2.72-.26.704-.874-.85-1.345-.127-2.004.744-2.473-.177-.4 1.1-1.42-1.148-.846.228-3.005-1.27-.576.903-2.385-.03.356-2.975 1.418-2.9-4.04-.786-1.323-1.123.158-1.895-.56-.983.318-2.968-.47-4.7h1.685l.7-1.7.7-4.225-.524-1.583.548-.998 2.343-.257.52 1.04 1.904-2.333-.64-1.793-.13-2.745 2.12.642zm92.974 148.796l.664.883-.088 1.183-1.6.68 1.204.78-1.033 1.52-.622-.506-.675.202-1.566-.048-.045-.864-.22-.784.95-1.335.985-1.26 1.2.248z"/><path d="M511.084 276.097l-1.683 3.97-2.934-2.76-.4-2.054 4.113-1.656zm-4.985-4.25l-.685 1.9-.835-.545-2.02 3.587.762 2.4-1.794.74-2.12-.642-1.138-2.723-.085-5.12.467-1.375.804-1.54 2.47-.32.984-1.43 2.256-1.473-.095 2.676-.83 1.676.336 1.43zM274.432 407.602l.35-.505 2.188.013 1.66.763.74-.075.5 1.05 1.535-.06-.1.88 1.247.107 1.38 1.08-1.042 1.195-1.333-.638-1.287.123-.923-.14-.505.536-1.077.18-.427-.7-.926.42-1.123 2.006-.722-.465-.142-.842.058-.797-.722-.882.684-.496.214-1.133zm234.716-11.267l-9.608 5.752-8.118 5.85-3.954 1.317-3.1.3-.032-1.88-1.3-.48-1.745-.85-.667-1.393-9.458-6.547-9.458-6.654-10.546-7.525.054-.608-.001-.2-.024-3.752 4.528-2.36 2.8-.5 2.295-.865 1.072-1.617 3.278-1.284.12-2.417 1.622-.286 1.27-1.216 3.67-.555.514-1.285-.74-.705-.968-3.53-.167-2.053-1.057-2.178 2.695-1.873 3.032-.598 1.77-1.425 2.7-1.057 4.752-.62 4.638-.284 1.414.518 2.64-1.376 2.996-.027 1.14.814 1.917-.213-.57 1.787.445 3.288-.66 2.812-1.728 1.887.247 2.527 2.293 1.984.024.802 1.73 1.332 1.195 5.857.908 2.84.152 1.485-.494 2.6.203 1.44-.357 1.72.245 1.965-1.113 1.3 1.658 2.256.105 1.32.998 1.7 1.3-.56 2.213 1.42zm-258.8 76.793l1.492-2.085-.607-1.217-1.07 1.294-1.68-1.22.57-.786-.473-2.528.982-.42.516-1.735 1.06-1.793-.195-1.137 1.536-.598 1.927-1.108 2.805 1.6.522-.044.684 1.198 2.38.386.797-.442 1.376.922 1.2.66.392 2.115-.873 1.8-3.058 2.918-3.37 1.1-1.718 2.428-.53 1.883-1.585 1.15-1.177-1.4-1.132-.302-1.16.223-.076-1.024.8-.665z"/><path d="M543.673 264.964l.325-3.124-1.03.672-1.78-1.9-.244-3.113 3.546-1.528 3.532-.802 3.042.912 2.894-.163.422.96-1.995 3.132.83 4.962-1.2 1.66-2.312-.01-2.413-1.942-1.23-.646zm29.747 112.57l-.788 1.286-.603 2.403-.763 1.646-.654.55-.934-1.018-1.265-1.412-2-4.578-.288.292 1.162 3.373 1.72 3.182 2.12 4.872 1.036 1.685.9 1.742 2.516 3.392-.557.532.1 1.974 3.266 2.712.493.616H545.6v-22.408l-.84-2.586.722-1.996-.434-1.4 1.016-1.567 3.73-.055 2.698.865 2.784.964 1.298.506 2.16-1.03 1.154-.936 2.473-.27 1.994.413.763 1.618.65-1.065 2.247.77 2.186.185 1.38-.82zm-134.76 5.912l-1.778 3.2-1.867 1.135-1.013 1.917-.066 1.644-.742 1.792-.944.494-1.56 1.94-.964 2.143.18 1.024-.918 1.57-1.076.82-.253 2.653.6-.997 10.98.02-.53-4.344.686-1.556 2.627-.273-.1-7.85 9.203.163.008-4.727.054-.608-.001-.204-12.5.014zm155.6 44.976l-.958-.924-1.153-1.678-1.243-.92-.725-.992-2.44-1.153-1.922-.034-.676-.602-1.644.677-1.702-1.308-.876 2.15-3.264-.6-.298-1.153 1.207-4.25.277-1.932.883-.894 2.065-.48 1.42-1.67 1.628 3.38.773 2.666 1.536 1.4 3.827 2.724 1.558 1.64 1.52 1.654.877.983 1.378.86-.845.697z"/><path d="M450.17 334.816l.14-2.687-1.145-1.652 3.966-2.775 3.43.697 3.765-.024 2.984.657 2.327-.202 4.532.128 1.118 1.5 5.16 1.73 1.02-.82 3.155 1.715 3.25-.5.15 2.2-2.657 2.486-3.593.784-.25 1.242-1.723 2.033-1.08 2.956 1.093 2.054-1.622 1.592-.606 2.302-2.117.702-1.986 2.7-3.558.053-2.673-.066-1.756 1.226-1.07 1.306-1.372-.286-1.038-1.17-.795-2-2.617-.542-.234-1.16 1.04-1.322.385-.963-.967-1.057.774-2.35-1.123-2.165 1.2-.3.113-1.72.455-.536.036-2.875 1.296-1.006-.784-1.874-1.634-.132-.48.474-1.656.004-.702-1.84-1.145.55zm131.616 86.672l1.702 1.308 1.644-.677.676.602 1.922.034 2.44 1.153.725.992 1.243.92 1.153 1.678.958.924-.985 1.26-.95 1.335.22.784.045.864 1.566.048.675-.202.622.506-.6 1.005 1.035 1.56 1.034 1.36 1.07 1.007 9.167 3.344 2.36-.018-7.924 8.416-3.652.123-2.5 1.97-1.798.052-.767.88-1.916-.001-1.13-.943-2.562 1.168-.828 1.163-1.87-.22-.62-.322-.657.077-.886-.028-3.55-2.37h-1.95l-.958-.92v-1.57l-1.456-.47-1.658-3.047-1.28-.65-.492-1.122-1.42-1.37-1.723-.202.955-1.602 1.5-.07.42-.86-.037-2.537.83-2.96 1.328-.794.282-1.16 1.202-2.173 1.7-1.413 1.14-2.817.447-2.466 3.264.6zm-277.88 211.9l3.365-2.698 2.383 1.12 1.682-1.8 2.244 2.013-.842 1.58-3.785 1.365-1.262-1.6-2.383 2.048zM555.67 193.353l-.4 5.404 4.294 5-2.587 5.478 3.26 7.957-1.888 5.763 2.524 4.855-1.146 4.145 4.15 4.256-1.055 3.105-2.605 3.452-6.003 7.406-5.088.45-4.93 2.068-4.562 1.18-1.623-3.065-2.715-1.87.624-5.728-1.362-5.408 1.337-3.58 2.542-3.942 6.415-7.02 1.87-1.386-.3-2.837-3.9-3.225-.946-2.7-.074-11.12-4.377-5.153-3.737-3.802 1.68-2.088 3.116 4.153 3.66-.384 3 1.87 2.674-3.44 1.375-5.855 4.353-2.775 3.598 3.252z"/><path d="M980.775 508.86l-.348 1.396-.23.155-1.782.716-1.792.613-.36-1.085 1.4-.596.9-.16 1.645-.905zm-5.835 4.32l-1.274-.36-1.082 1.004.27 1.288 1.546.363 1.738-.403.463-1.53-.965-.843zM502.308 333.794l-.926 2.893-1.273-.76-.65-2.526.566-1.407 1.806-1.455zm-16.745-33.35l1.957 2.057 1.44-.338 2.453 1.973.627.374.8-.1 1.323 1.123 4.04.787-1.417 2.9-.356 2.975-.77.707-1.278-.38.1 1.05-2.05 2.303-.04 1.838 1.34-.634.963 1.77-.116 1.134.825 1.498-.972 1.208.723 3.04 1.52.494-.32 1.684-2.54 2.173-5.53-1.04-4.083 1.244-.32 2.292-3.25.5-3.155-1.716-1.02.82-5.16-1.73-1.118-1.5 1.45-2.32.534-7.877-2.894-4.264-2.068-2.086-4.285-1.6-.283-3.066 3.636-.923 4.708 1.1-.9-4.845 2.647 1.85 6.528-3.374.842-3.605 2.452-.898.406 1.562 1.303.073zm21.045 174.286l-2.88-2.817-1.853-2.3-1.703-2.878.1-.925.613-.9.68-2.028.565-2.065.945-.16 4.08.028-.024-3.353 1.332-.183 1.704.373 1.66-.36.35.152-.204 1.216.784 1.44 2.086-.227.7.553-1.214 3.226 1.327 1.647.306 2.175-.354 1.853-.86 1.317-2.475-.118-1.498-1.338-.223 1.235-1.892.342-.96.7 1.057 1.844zm-46.98-193.475l-1.503 3.287-2.12-.98-1.734.065.578-2.57-.578-2.604 2.35-.202zm7.45-20.762l-2.997 5.73 2.856-.716 3.072.027-.73 4.218-2.52 4.535 2.9.318.223.524 2.497 5.787 1.92.774 1.726 5.4.8 1.84 3.397.882-.34 2.933-1.428 1.33 1.12 2.327-2.522 2.328-3.75-.04-4.773 1.212-1.308-.867-1.854 2.058-2.594-.497-1.97 1.667-1.5-.87 4.112-4.636 2.5-.966-.022-.004-4.38-.75-.793-1.8 2.93-1.413-1.536-2.48.533-3.056 4.172.425.413-2.743-1.92-3.02-3.405-.852-.668-1.318 1.02-2.195-.922-1.366-1.5 2.338-.164-4.797-1.416-2.587 1.018-5.356 2.178-4.3 2.24.425zm124.937 75.614l.418-1.6-.7-2.577-1.62-1.404-1.554-.44-1.027-1.176.342-.455 2.37.658 4.128.62 3.817 1.832.492.706 1.7-.597 2.615.794.86 1.55 1.762.87-.728.516 1.38 2.017-.382.434-1.512-.22-2.1-1.068-.687.607-3.896.58-2.7-1.827zM328.143 456.66l-1.075 1.06-1.342.2-.382-.785-.627-.117-.868.756-1.225-.575.7-1.2.244-1.27.484-1.195-1.088-1.647-.222-1.912 1.46-2.405.952.308 2.065.662 2.968 2.36.464 1.144-1.66 2.554zm150.333-9.563l-4.396 1.638-1.56.96-2.527.8-2.5-.794.127-1.103-1.216-2.412.73-3.168 1.182-2.36-.744-4.012-.383-2.13.066-1.608 4.87-.134 1.24.207.905-.458 1.297.226-.207.884 1.17 1.46-.005 2.053.267 2.222.704 1.027-.62 2.533.223 1.397.748 1.778zM344.384 24.16l9.414-13.605 9.838 1.066 3.576-8.952 9.9-2.416L399.517 3.4l17.54 18.588-5.178 8.3-10.726.923-15.092 2.03 1.412 3.645 9.925-2.243 8.446 6.913 5.443-6.124 2.33 7.15-3.078 10.967 7.138-6.925 13.615-7.55 8.405 3.813 1.575 8.1-11.43 12.668-1.583 3.893-8.962 2.866 6.494.786-3.28 11.508-2.257 9.598.088 15.257 3.367 8.334-4.38.513-4.6 3.88 5.174 6.3.66 9.626-2.998 1.016 3.633 9.154-6.23.742 3.252 4.14-.92 3.5-3.954 1.518-3.907.028 3.512 6.48.04 4.128-5.55-3.833-1.443 2.5 3.785 2.293 3.674 5.476 1.063 6.955-4.998 1.623-2.16-3.263-3.467-4.98.96 5.87-3.257 4.4 7.4.35 3.865.45-7.515 7.03-7.62 6.126-8.205 2.616-3.093.033-2.9 2.872-3.9 7.635-6.03 4.9-1.937.283-3.733 1.68-4.03 1.583-2.402 4.122-.038 4.558-1.42 4.166-4.572 4.95 1.13 4.705-1.26 4.85-1.437 5.565-3.95.342-4.138-4.634-5.606-.03-2.72-3.18-1.87-5.805-4.86-7.67-1.42-4.156-.383-5.892-3.884-6.267 1-5.17-1.87-2.528 2.772-8.656 4.22-2.848 1.107-3.26.587-6.262-3.203 2.867-1.527 1.2-2.518 1.133-3.44-2.605-.187-5.55 1.097-4.478 2.6-.123 5.724 2.255-4.82-5.435-2.5-3.004-2.792 1.24-2.34-2.193 3.13-8.506-1.705-3.523-2.225-6.743-3.375-10.906-3.57-4.18.033-4.627-7.524-6.7-5.953-.852-7.493.472-6.842.857-3.254-3.746-4.872-7.66 7.362-3.97 5.644-.676-11.998-3.37-6.32-5.433.386-5.343L281 89.975l10.27-7.16 1.084-5.637-7.568-5.762 2.445-6.644 9.707-12.333 4.08-1.98-1.17-8.57 6.642-5.24 8.622-3.2 8.616-.183 3.06 6.306 7.438-11.324 6.692 7.78 3.937 1.593 5.823 6.412L344 33.256z"/><path d="M428.282 426.68l.358-1.27 3.054-.082.633-.68.9-.046 1.107.706.87.013.924-.483.567.83-1.214.643-1.218-.05-1.203-.605-1.04.66-.502.024-.674.4zm23.558 15.488l-.793-.073-.57 1.132-.793-.014-.546-.598.186-1.13-1.173-1.724-.732.317-.6.063-.772.16.032-1.033-.45-.737.1-.82-.608-1.187-.78-1-2.242-.003-.654.533-.772.064-.48.6-.324.783-1.498 1.24-1.23-1.67-1.1-1.106-.718-.366-.7-.563-.32-1.25-.4-.625-.815-.465 1.247-1.384.85.052.732-.477.618-.005.442-.377-.24-.943.308-.298.05-.968 1.353.03 2.016.696.618-.064.2-.318 1.53.226.405-.16.16 1.044.445-.003.732-.38.465.095.778.723 1.2.228.77-.616.906-.382.674-.4.56.075.623.626.334.786 1.15 1.2-.575.73-.1.923.597-.28.35.33-.148.844.856.817-.56.22-.225.96.646 1.168.693 2.257-1.042.34-.268.4.217.544-.165 1.226zm50.28 18.658l-.525-.42.963-3.13 4.563.064.024 3.353-4.08-.028zm39.834-103.86l1.533 1.156 2.182-.195 2.086.243-.067.595 1.528-.4-.35 1.007-4.038.3.028-.563-3.42-.666zm8.143-20.958l-.868 2.325-.666.414-1.708-.104-1.463-.35-3.396.96 1.944 2.062-1.424.594-1.562.004-1.483-1.884-.526.804.626 2.176 1.403 1.697-1.057.788 1.562 1.65 1.388 1.033.042 2-1.358-1.146-1.236.2.827 1.8-.917.2-1-.694 1.2 3.952-.583.014-.446-1.263-.573-.025-.26 1.318-.454-.3.102-.74-.56-1.045h-.637l.118.843-.25.267-.616-.54-.383-1.02.52-.57-.357-.74-.408-.382-.423-.094-.5-.943.583-.52.357-.484.56.102.25-.4.6-.163.683.46.553.17.386-.622-.938-.084-.555-.194-1.25.28-1.22.048-1.093-1.64-.18-.254.167-.642-1.423-1.155-.2-1.03 1.304-1.765.168-1.2.9-.533.056-.968 1.834-.327 1.07-.8 1.52.072.46-.647.534-.124 2.074.107 2.245-1.024 1.976 1.3 2.548-.35.03-1.86z"/><path d="M222.888 425.008l-1.438-.5-1.75-.052-1.283-.57-1.508-1.186.07-.84.325-.676-.398-.54 1.35-2.36 3.6-.01.072-.988-.454-.176-.312-.63-1.036-.672-1.044-.974 1.266-.007.002-1.645 2.618-.005 2.593.032-.022 2.315-.22 3.28.837-.001.914.524.242-.43.822.37-1.278 1.103-1.33.808-.197.554.223.566-.583.73-.656.177.15.34-.526.317-.96.725zm210.192 7.688l-1.497-1.187-1.18-.2-.643-.8.016-.433-.855-.605-.178-.6 1.485-.465.93.092.75-.32 5.182.12-.05.968-.308.298.24.943-.442.377-.618.005-.732.477-.85-.052z"/><path d="M307.95 440.252l1.84 1.035 1.734 1.83.08 1.446 1.057.066 1.502 1.368 1.107.975-.448 2.517-1.702.73.15.66-.517 1.44 1.243 2.027.898.003.368 1.574 1.712 2.424-.683.1-1.55-.237-.912.74-1.268.5-.887.12-.3.545-1.376-.138-1.725-1.307-.203-1.3-.718-1.4.447-2.374.777-.983-.643-1.298-.964-.423.365-1.228-.652-.644-1.458.124-1.898-2.124.76-.77-.056-1.294 1.726-.45.696-.526-.96-1.042.245-1.025zm-77.27-13.094l-.484-.895-.852-.25.195-1.148-.38-.3-.577-.204-1.23.34-.104-.386-.847-.46-.604-.573-.827-.242.583-.73-.223-.566.197-.554 1.33-.808 1.278-1.103.3.113.615-.5.802-.04.26.236.435-.144 1.302.26 1.296-.076.902-.32.33-.325.894.15.67.198.733-.068.557-.252 1.28.402.445.064.856.54.8.65 1.02.442.74.794-.962-.06-.388.393-.974.376-.708.002-.62.367-.562-.13-.478-.44-.293.084-.36.688-.27-.025-.046.593-.98.8-.516.34-.288.356-.827-.58-.605.766-.585-.02-.658.067.06 1.4-.4.026-.35.654zm297.62-107.97l.68 1.55.9 1.134-1.08 1.488-1.27-.874-1.938.055-2.4-.658-1.3.088-.607.822-1.007-.9-.586 1.64 1.373 1.834.608 1.2 1.3 1.447 1.068.853 1.06 1.602 2.48 1.443-.308.645-2.636-1.407-1.626-1.375-2.564-1.142-2.358-2.853.566-.292-1.28-1.648-.052-1.332-1.803-.625-.86 1.706-.828-1.322.063-1.38.1-.064 1.954.136.513-.674.954.652 1.1.077-.01-1.116.974-.4.273-1.627 2.232-1.076.9.5 2.096 1.73 2.316.77zm-258 87.817l1.7.13 2.432.466.245 1.6-.214 1.133-.684.496.722.882-.058.797-1.862-.498-1.323.203-1.7-.212-1.312.548-1.502-.914.247-.947 2.582.408 2.115.236 1-.654-1.28-1.277.02-1.128-1.77-.46z"/><path d="M520.932 315.365l.93-2.647-.544-.9 1.58-.008.213-1.704 1.427 1.07 1.034.454 2.353-.5.226-.84 1.114-.124 1.365-.65.304.27 1.316-.524.658-.992.92-.258 3.003 1.28.598-.43 1.556 1.143.196 1.12-1.713.872-1.326 2.798-1.696 2.76-2.248.762-1.75-.18-2.148 1.06-1.048.6-2.316-.77-2.096-1.73-.9-.5-.545-1.375zm293.04 176.947l-1.18.054-3.72-1.98 2.614-.555 1.474.86.98.858zm10.43-.282l-2.4.623-.336-.34.252-.962 1.206-1.724 2.77-1.12.284.556.052.856zm-18.326-5.767l1 .75 1.732-.23.695 1.197-3.24.566-1.942.378-1.507-.022.963-1.623 1.538-.022zm14.03-.004l-.4 1.564-4.213.8-3.73-.348-.01-1.03 2.228-.585 1.757.844 1.866-.214zm-40.04-3.7l5.37.28.618-1.156 5.2 1.35 1.02 1.82 4.207.513 3.438 1.672-3.2 1.073-3.083-1.135-2.538.077-2.9-.208-2.624-.505-3.248-1.074-2.06-.278-1.166.352-5.113-1.157-.486-1.207-2.565-.206 1.924-2.678 3.4.166 2.264 1.095 1.162.214zm73.184-1.578l-1.442 1.9-.273-2.1.498-1.007.587-.946.638.82zm-20.96-7.703l-1.05.926-1.938-.513-.546-1.2 2.836-.134zm9.034-1.02l1.02 2.134-2.367-1.15-2.343-.233-1.582.184-1.94-.098.665-1.534 3.463-.116zm10.296-5.413l.783 4.507 2.9 1.67 2.344-2.958 3.217-1.682 2.493-.002 2.397.972 2.08.997 3 .533.095 18.26-2.497-2.313-2.848-.566-.7.802-3.553.086 1.2-2.3 1.766-.78-.73-3.05-1.346-2.35-5.436-2.368-2.313-.233-4.2-2.58-.828 1.356-1.076.246-.637-1.024-.01-1.212-2.142-1.37 3.02-1.004 2 .054-.235-.74-4.104-.005-1.1-1.66-2.505-.514-1.187-1.378 3.78-.675 1.438-.908 4.5 1.144zm-24.962-7.162l-2.253 2.763-2.107.536-2.698-.544-4.673.14-2.45.4-.398 2.108 2.5 2.477 1.514-1.262 5.23-.948-.23 1.283-1.222-.405-1.218 1.632-2.468 1.08 2.653 3.573-.513.958 2.52 3.223-.024 1.837-1.497.822-1.1-.984 1.355-2.3-2.752 1.082-.697-.773.363-1.08-2.02-1.637.208-2.718-1.87.848.237 3.253.114 4-1.778.406-1.204-.82.804-2.573-.434-2.694-1.18-.02-.87-1.9 1.16-1.826.4-2.212 1.4-4.2.588-1.148 2.384-2.07 2.2.823 3.535.387 3.225-.117 2.77-2.023zm9.667.8l-.146 2.434-1.446-.272-.427 1.695 1.155 1.47-.785.334-1.132-1.764-.833-3.56.564-2.226.93-1.014.202 1.522 1.655.244zm-30.317-1.937l3.144 2.578-3.322.33-.936 1.898.122 2.524-2.696 1.905-.074 2.775-1.08 4.266-.413-.993-3.186 1.256-1.1-1.707-2-.158-1.398-.894-3.333 1.003-1.023-1.35-1.836.154-2.312-.322-.43-3.738-1.4-.774-1.346-2.383-.4-2.437.326-2.58 1.666-1.852.47 1.862 1.917 1.574 1.8-.566 1.8.2 1.634-1.4 1.345-.244 2.652.78 2.287-.594 1.438-3.876 1.08-.97.972-3.175 3.224.001 2.43.47-1.595 2.52 2.062 2.64zm-33.8 21.42l-3.104.06-2.36-2.34-3.6-2.283-1.2-1.692-2.122-2.27-1.393-2.1-2.133-3.9-2.462-2.32-.824-2.395-1.033-2.175-2.528-1.755-1.466-2.386-2.1-1.563-2.925-3.078-.246-1.424 1.806.113 4.34.54 2.48 2.733 2.17 1.893 1.546 1.16 2.656 2.997 2.85.043 2.355 1.9 1.623 2.333 2.135 1.272-1.123 2.274 1.606.967 1.007.07.476 1.943.977 1.555 2.06.247 1.364 1.765-.704 3.47zM458.125 284.542l.462 3.36-2.12 4.123-4.97 2.682-3.97-.683 2.273-4.78-1.464-4.767 3.814-3.753 2.12-2.272.58 2.604-.58 2.57 1.735-.065zm117.53 82.538l-.488 1.043-1.015-.458-.586 2.196.704.37-.716.45-.12.86 1.318-.443.066 1.27-1.397 5.166-1.843-5.555.816-1.077-.2-.186.74-1.535.57-2.494.4-.843.077-.034.94.006.258-.584.752-.044.043 1.363-.38.505zm118.092-9.4l3.014 4-.284 2.743 1.115 1.708-.092 1.694-2.012-.445.786 3.63 2.755 2.065 3.897 2.265-1.78 1.46-1.088 3 2.716 1.202 2.644 1.552 3.657 1.767 3.843.406 1.617 1.593 2.167.296 3.373.727 2.335-.052.32-1.235-.37-2 .217-1.356 1.7-.665.295 3.1 2.55 1.187 1.762-.5 2.368.2 2.287-.093.197-1.925-1.142-1.005 2.262-.394 2.552-2.356 3.232-2.03 2.352.785 2-1.346 1.314 1.985-.947 1.335 3.024.473.2 1.2-.983.578.23 1.933-2.004-.567-3.63 2.162.085 1.78-1.547 2.594-.143 1.498-1.25 2.522-2.2-.696-.1 3.148-.633 1.03.296 1.28-1.383.714-1.477-4.8-.774.01-.458 1.94-1.535-1.572.865-1.734 1.255-.177 1.292-2.594-1.616-.526-2.6.046-2.668-.423-.247-2.15-1.34-.153-2.22-1.343-1 2.107 2.024 1.635-1.753 1.147-.622 1.12 1.725.82-.476 1.84.97 2.28.437 2.485-.402 1.096-1.908-.037-3.456.622.16 2.248-1.497 1.76L714 408.3l-3.138 3.466-2.108 1.848-2.794 1.912-.004 1.338-1.397.716-2.526 1.04-1.3.154-.84 2.205.583 3.743.15 2.376-1.188 2.712-.013 4.825-1.45.137-1.276 2.157.853.93-2.557.8-.944 1.916-1.125.8-2.654-2.63-1.298-3.957-1.076-2.86-.983-1.346-1.5-2.738-.696-3.582-.485-1.796-2.55-3.968-1.16-5.646-.84-3.762.01-3.6-.544-2.794-4.08 1.788-1.976-.357-3.663-3.63 1.348-1.1-.828-1.186-3.3-2.575 1.867-2.037 6.17.008-.556-2.637-1.576-1.566-.32-2.4-1.835-1.402 3.1-3.295 3.256.24 2.933-3.326 1.757-3.25 2.723-3.25-.044-2.328 2.392-1.903-2.264-1.634-.974-2.254-.993-2.946 1.374-1.46 4.254.828 3.125-.504zm-90.893-1.663l1.84 1.034.212 2-1.4 1.175-.65 2.638 1.942 3.18 3.435 1.82 1.443 2.503-.46 2.366.895-.001.028 1.73 1.55 1.697-1.663-.158-1.885-.27-2.057 3.08-5.213-.255-7.906-6.5-4.178-2.292-3.377-.892-1.13-4.04 6.207-3.5 1.06-4.12-.265-2.52 1.535-.857 1.437-2.18 1.204-.545 3.26.453.985.892 1.344-.6z"/><path d="M626.7 351.78l2.464-.68 1.994-2.017 1.875.103 1.23-.66 1.994.327 3.1 1.8 2.24.384 3.204 3.095 2.1.125.246 2.906-1.143 4.247-.77 2.45 1.22.495-1.2 1.827.918 2.644.22 2.085 2.124.552.23 2.096-2.543 2.93 1.387 1.686 1.13 1.926 2.68 1.396.077 2.777 1.342.508.23 1.442-4.044 1.6-1.056 3.595-5.275-.93-3.057-.7-3.164-.402-1.197-3.816-1.342-.556-2.154.56-2.828 1.5-3.427-1.035-2.83-2.4-2.7-.897-1.873-3.007-2.07-4.273-1.5.523-1.782-1.07-1.047 1.26-1.55-1.697-.028-1.73h-.895l.46-2.366-1.443-2.503-3.435-1.82-1.942-3.18.65-2.638 1.4-1.175-.212-2-1.84-1.034-1.816-4.147-1.534-2.82.55-1.1-.875-4.112 1.92-1.032.444 1.365 1.417 1.66 1.923.477 1.015-.106 3.307-2.656 1.05-.267.83 1.06-.967 1.78 1.75 1.87.697-.178.887 2.612 2.66.733 1.948 1.756 3.986.602 4.38-.924zM434.823 212.683l-.648 4.48 3.168 4.6-3.645 5.006-8.088 4.38-2.417 1.148-3.7-.926-7.823-2.008 2.76-2.84-6.103-3.2 4.965-1.283-.12-1.963-5.885-1.57 1.894-4.474 4.25-1.032 4.37 4.684 4.26-3.75 3.528 1.957 4.573-3.707zm84.197 135.454l-1 2.783.42 1.087-.588 1.795-2.145-1.313-1.426-.377-3.914-1.786.393-1.816 3.28.324 2.86-.387zm-17.693-10.818l1.682 2.622-.394 4.8-1.275-.228-1.144 1.2-1.062-.954-.112-4.384-.64-2.105 1.542.185zm8.878-21.607l4 1.05-.304 2 .67 1.707-2.232-.583-2.28 1.417.155 1.966-.343 1.12.92 2 2.63 1.95 1.4 3.167 3.12 3.047 2.197-.023.683.83-.787.745 2.5 1.345 2.06 1.12 2.404 1.92.3.683-.524 1.306-1.556-1.704-2.436-.603-1.18 2.362 2.026 1.344-.333 1.88-1.17.213-1.498 3.057-1.168.272.01-1.084.572-1.913.6-.766-1.095-2.1-.855-1.833-1.164-.455-.828-1.583-1.802-.67-1.213-1.487-2.075-.24-2.2-1.683-2.565-2.448-1.906-2.188-.875-3.803-1.395-.452-2.28-1.287-1.3.528-1.62 1.802-1.165.284.32-1.684-1.52-.494-.723-3.04.972-1.208-.825-1.498.116-1.134 1.207.86 1.352-.2 1.572-1.364.486.64 1.335-.128.607-1.63 2.075.508 1.235-.684.222-1.67 1.7.58.326-.777 2.77-.712zM258 411.212l1.887.263 1.5.705.465.803-1.972.054-.85.5-1.57-.47-1.603-1.068.337-.67 1.18-.205zm317.158-43.1l.488-1.043 3.124 1.3 5.5-3.54 1.13 4.04-.534.497-5.616 1.646 2.795 3.256-.927.55-.462 1.08-2.14.445-.67 1.157-1.212.984-3.12-.508-.094-.464 1.397-5.166-.066-1.27.415-.962zM853 362.263l.358 1.154-1.58 2.025-1.15-1.072-1.438.777-.744 1.946-1.827-.946.022-1.583 1.55-2.003 1.595.4 1.152-1.417zm17.77-10.283l-1.057 2.78.5 1.73-1.46 2.416-3.582 1.602-4.93.208-3.995 3.844-1.884-1.288-.116-2.523-4.877.747-3.318 1.588-3.282.064 2.843 2.463-1.87 5.6-1.813 1.373-1.356-1.268.688-2.96-1.774-.962-1.14-2.28 2.65-1.03 1.47-2.114 2.82-1.75 2.057-2.333 5.58-1.023 2.998.702 2.934-6.168 1.87 1.67 4.113-3.512 1.595-1.377 1.763-4.383-.48-4.1 1.185-2.333 2.98-.682 1.528 5.108-.083 2.938-2.594 3.602zm8.226-25.93l1.972.83 1.983-1.65.623 4.348-4.16 1.048-2.455 3.763-4.4-2.583-1.525 4.122-3.12.056-.386-3.74 1.387-2.937 2.996-.213.817-5.38.83-3.1 3.295 4.117zM590.44 466.03l1.66 2.3-1.964 1.113-.693 1.163-1.05.204-.398 1.965-.9 1.126-.548 1.857-1.13.923-4.024-2.792-.2-1.618-10.167-5.678-.474-.306-.028-2.952.803-1.128 1.38-1.844 1.02-2.03-1.234-3.2-.328-1.4-1.33-1.938 3.626-3.512 1.456.47v1.57l.958.92h1.95l3.55 2.37.886.028.657-.077.62.322 1.87.22.828-1.163 2.562-1.168 1.13.943 1.916.001-2.45 3.165zm84.03-132.665l.628-1.66 1.845-.537 4.614 1.3.435-2.247 1.592-.794 3.993 1.6 1.02-.42 4.65.105 4.16.4 1.407 1.365 1.727.555-.394.853-4.418 2.032-1 1.478-3.597.44-1.06 2.354-2.967-.492-1.938.718-2.677 1.726.387.85-.798.83-5.302.547-3.463-1.174-3.04.28.266-2.096 3.052.6 1.026-1.126 2.133.36 3.6-2.645-3.323-1.954-1.997.927-2.07-1.4 2.354-2.43zm91.224 100.488l-1.14-1.478-1.418-2.94-.664-3.45 1.796-2.385 3.625-.55 2.628.413 2.314 1.126 1.27-1.982 2.484 1.06.65 1.914-.345 3.426-4.713 2.2 1.23 1.72-2.943.206-2.427 1.142zm76.104-100.975l.392.66-1.065-.226-1.217 1.275-.837 1.274.106 2.668-1.45.816-.5.648-1.057 1.083-1.867.6-1.217.977-.088 1.568-.327.4 1.116.585 1.588 1.572-.404.863-1.194.235-1.98.172-1.093 1.6-1.25-.126-.176.32-1.36-.672-.34.664-.82.293-.1-.665-.726-.324-.754-.565.767-1.567.66-.42-.25-.654.7-1.94-.183-.592-1.637-.394-1.322-.975 2.283-2.347 3.1-1.984 1.927-2.644 1.33 1.172 2.423.136-.437-1.975 4.33-1.624 1.114-2.13z"/><path d="M835.377 346.78l2.42 4.182.694 2.27.022 3.985-1.057 1.882-2.54.654-2.24 1.408-2.526.3-.313-1.848.52-2.566-1.24-3.6 2.083-.587-1.922-3.005.176-.32 1.25.126 1.093-1.6 1.98-.172 1.194-.235zm-301.66-12.608l-.126.77-.356-.03-.2-1.364-.67-.386-.597-1.016.524-.852.67-.274.388-1.27.503-.212.398.54.524.238.367.607.46.18.545.705.398-.02-.314.924-.336.45.093.283-.627.145zm76.3 41.828l.585 1.418-.25.73.903 2.404-1.983.082-.698-1.516-2.498-.308 2.057-3.08zm64.453-42.635l-1.608.697-3.698 2.6-1.227 2.65-1.044.024-.77-1.75-3.565-.12-.57-3.06-1.366-.026.2-3.8-3.356-2.807-4.8.302-3.288.56-2.678-3.498-2.294-1.484-4.87-3.183-7.218 2.347.1 14.127-1.44.182-1.962-2.932-1.895-1.056-3.183.785-1.24 1.25-.157-.915.7-1.573-.535-1.322-3.25-1.3-1.266-3.464-1.548-.985-.093-1.276 2.727.373.108-2.883 2.384-.646 2.45.594.505-3.907-.5-2.514-2.806.198-2.384-1-3.246 1.797-2.616.85-1.424-.656.285-2.102-1.787-2.76-2.08.116-2.38-2.837 1.618-3.215-.82-.874 2.238-4.77 2.883 2.532.35-3.193 5.788-4.85 4.38-.117 6.18 3.102 3.32 1.8 2.975-1.868 4.445-.1 3.586 2.292.815-1.3 3.938.2.703-2.106-4.544-3.097 2.7-2.223-.525-1.254 2.692-1.204-2.024-3.208 1.285-1.618 10.492-1.663 1.37-1.2 7.016-1.8 2.52-2.032 5.04 1.058.883 5.012 2.927-1.165 3.6 1.63-.232 2.583 2.7-.268 7.027-4.494-1.026 1.504 3.578 3.66 6.265 11.576 1.494-2.333 3.863 2.565 4.03-1.14 1.548.8 1.35 2.546 1.96.848 1.194 1.843 3.612-.58 1.487 2.634-2.134 2.83-2.33.394-.133 4.186-1.56 1.86-5.562-1.353-2.023 7.262-1.435.886-5.555 1.582 2.524 6.754-1.924.995.224 2.165-1.727-.555-1.407-1.365-4.16-.4-4.65-.105-1.02.42-3.993-1.6-1.592.794-.435 2.247-4.614-1.3-1.845.537zm96.05 90.1l.913-1.297.125-2.443-2.27-2.527-.175-2.875-2.133-2.378-2.12-.2-.565 1.02-1.642.085-.84-.517-2.955 1.746-.066-2.626.7-3.104-1.894-.136-.16-1.78-1.213-.917.597-1.096 2.386-1.944.252.703 1.495.08-.423-3.433 1.453-.442 1.638 2.376 1.26 2.717 3.452.023 1.087 2.592-1.792.776-.805 1.063 3.36 1.762 2.33 3.465 1.768 2.568 2.12 2.02.706 2.043-.5 2.88-2.484-1.06-1.27 1.982zm-194.58-58.276l-.752.044-.258.584-.94-.006 1-2.726 1.394-2.38.053-.12 1.26.173.46 1.327-1.53 1.27zm128.884 77.438l-.422 2.922-1.175.797-2.44.64-1.335-2.228-.497-4.038 1.27-4.578 1.937 1.57 1.306 1.985zm-250.944 8.846l-.734.024-2.9-1.332-2.548-2.13-2.4-1.53-1.888-1.8.67-.898.148-.816 1.265-1.526 1.305-1.313.6-.063.732-.317 1.173 1.724-.186 1.13.546.598.793.014.57-1.132.793.073-.13.816.28 1.358-.6 1.245.817.77.9.187 1.187 1.173.086 1.102-.268.35zM556.754 548l.973.963-.86 1.56-.476 1.05-1.563.504-.515 1.033-1.004.323-2.103-2.485 1.495-2.03 1.52-1.248 1.3-.65zm-17.516-265.652l-.225-1.228.3-1.327-1.24-.773-2.936-.856-.596-4.164 3.2-1.543 4.702.324 2.754-.5.394 1.048 1.492.322 2.695 2.42.264 2.207-2.3 1.562-.65 2.724-3.044 1.797-2.7-.032-.673-1.47z"/><path d="M492.447 301.54l.56.983-.158 1.895-.8.1-.628-.373.304-2.43zM534.54 274l.096-3.808 1.378-3.235 2.643-1.783 2.226 3.88 2.25-.1.54-4 2.388-.93 1.23.646 2.413 1.942 2.312.01 1.35 1.195.24 2.5.9 3-3.012 1.93-1.705.835-2.695-2.42-1.492-.322-.394-1.048-2.754.5-4.702-.324zm-17.396 124.18l-1.984 1.123-1.577-1.66-4.435-1.308-1.23-1.9-2.213-1.42-1.3.56-.998-1.7-.105-1.32-1.658-2.256 1.113-1.3-.245-1.965.357-1.72-.203-1.44.494-2.6-.152-1.485-.908-2.84 1.37-.75.242-1.372-.298-1.35 1.925-1.262.863-1.053 1.367-.947.16-2.55 3.293 1.145 1.178-.285 2.342.553 3.72 1.48 1.313 2.918 2.517.634 3.95 1.362 2.988 1.6 1.367-.84 1.343-1.493-.653-2.503.88-1.6 2.02-1.55 1.93-.453 3.793.68.956 1.478 1.044.013.893.562 2.786.386.684 1.084-1.016 1.567.434 1.4-.722 1.996.84 2.586v28.37l-3.224.01-.035 1.243-11.183-5.7-11.182-5.776zM471.6 366.565l-.968-3.53-.167-2.053-1.057-2.178-1.218-.037-2.904-.755-2.667.237-1.7-1.456-2.064-.017-.88 2.104-1.874 3.513-2.08 1.4-2.813 1.528-1.804 2.246-.376 1.738-1.065 2.82.7 4.03-2.34 2.676-1.406.85-2.2 2.17-2.607.35-1.426 1.225 12.5-.014v-.007l-.024-3.752 4.528-2.36 2.8-.5 2.295-.865 1.072-1.617 3.278-1.284.12-2.417 1.622-.286 1.27-1.216 3.67-.555.514-1.285zm78.53-56.865l.67-.62 1.863-.417 2.067 1.3 1.153.157 1.267 1.124-.2 1.407 1.02.676.405 1.717.98 1.038-.198.607.523.4-.743.3-1.652-.12-.276-.56-.586.324.198.724-.768 1.286-.5 1.375-.706.433-.502-1.826.295-1.724-.1-1.785-1.618-2.442-.9-1.748-.87-1.238zm-19.116 22.78l-.178-.715-1.216 1.865.188 1.196-.587-.3-.785-1.23-1.212-.75.308-.644.4-2.1.912-.893.524-.352.744.66.4.53.922.413 1.07.793-.23.327-.524.852zm83.392 166.17l.744 1.215.694 1.9.452 3.457.725 1.35-.278 1.386-.496.853-.952-1.696-.528.856.536 2.148-.25 1.233-.773.673-.177 2.476-1.104 3.427-1.383 4.082-1.732 5.675-1.074 4.214-1.267 3.55-2.28.73-2.447 1.305-1.615-.788-2.226-1.103-.774-1.62-.185-2.707-.987-2.418-.257-2.17.503-2.163 1.3-.518.008-.994 1.34-2.255.253-1.886-.65-1.398-.53-1.855-.224-2.698.98-1.63.376-1.844 1.397-.107 1.564-.594 1.038-.524 1.23-.04 1.6-1.648 2.307-1.776.842-1.446-.382-1.227 1.2.345 1.545-2 .052-1.718.93-1.275zm-81.18-163.74l.356.03.126-.77 1.656-.583 1.582-.365 1.3-.063 1.404 1.2.2 2.473-.534.124-.462.647-1.52-.072-1.07.8-1.834.327-1.163-.9-.4-1.594zm-91.857 87.565l.944-.525.47-1.7.9-.066 1.958.804 1.58-.57 1.084.2.42-.642 11.25-.044.624-2.028-.486-.358-1.353-12.685-1.353-13.056 4.3-.056 9.458 6.654 9.458 6.547.667 1.393 1.745.85 1.3.48.032 1.88 3.1-.3.008 6.75-1.533 1.94-.24 1.785-2.5.46-3.825.248-1.037 1.025-1.797.114-1.798.013-.7-.553-1.544.4-2.62 1.196-.536.9-2.175 1.287-.38.737-1.176.583-1.355-.386-.77.7-.4 1.96-2.226 2.36.065.963-.765 1.204.186 1.646-1.157.42-.654.357-.435-1.2-.8.32-.484-.056-.516.827-2.165-.023-.776-.426-.366.258-.856-.817.148-.844-.35-.33-.597.28.1-.923.575-.73-1.15-1.2-.334-.786-.623-.626-.56-.075-.674.4-.906.382-.77.616-1.2-.228-.778-.723-.465-.095-.732.38-.445.003-.16-1.044.13-.9-.24-1.106-1.05-.804-.554-1.642zm313.23-16.275l-1.635 1.286-1.98.133-1.278 3.2-1.184.534 1.356 2.572 1.78 2.13 1.148 1.917-1.026 2.518-.968.533.67 1.446 1.87 2.284.32 1.6-.044 1.328 1.096 2.6-1.54 2.65-1.358 2.9-.27-2.102.86-2.174-.943-1.684.228-3.1-1.138-1.484-.914-3.44-.507-3.652-1.212-2.408-1.847 1.46-3.187 2.068-1.572-.258-1.737-.68.966-3.604-.585-2.74-2.198-3.395.343-1.065-1.64-.38-2-2.424-.183-2.403.978.453.058-2.152 1.383-.714-.296-1.28.633-1.03.1-3.148 2.2.696 1.25-2.522.143-1.498 1.547-2.594-.085-1.78 3.63-2.162 2.004.567-.23-1.933.983-.578-.2-1.2 1.64-.235.937 1.86 1.223.75.083 2.398-.113 2.567-2.655 2.58-.337 3.635 2.96-.507.67 2.8 1.775.587-.816 2.507 2.082 1.128 1.214.553 2.056-.874.085 1.24-2.386 1.944-.597 1.096z"/><path d="M721.545 305.134l2.956-.744 5.35-3.74 4.264-2.07 2.44 1.353 2.925.065 1.874 2.043 2.798.156 4.054 1.1 2.726-3.033-1.14-2.6 2.904-4.66 3.14 1.87 2.545.527 3.297 1.152.535 3.32 3.982 1.84 2.65-.8 3.547-.573 2.8.577 2.746 2.092 1.702 2.203 2.6-.045 3.532.697 2.577-1.062 3.692-.712 4.106-3.06 1.682.472 1.468 1.456 3.345-.36-1.365 3.247-1.98 4.227.722 1.706 1.587-.528 2.766.647 2.155-1.538 2.25 1.333 2.54 2.887-.307 1.453-2.212-.46-4.073.54-1.973 1.156-2.055 2.662-4.275 1.546-2.794 2.1-2.882-.8-1.577-.358-1.473 2.538.896 1.5.454 1.28-1.963 1.297-2.012 2.05-3.276 1.337-4.202.144-4.53 1.3-3.264 2.014-1.242-1.164-3.392.003-4.15-2.3-2.767-.565-3.73.528-5.787-.85-3.1.088-1.645-2.27-1.278-3.568-1.732-.433-3.388-2.448-3.776-.552-3.332-.68-1-1.73 1.08-4.727-1.934-3.32-4-1.565-2.357-2.23zm-280.167 117.34l-1.85-1.98-1.697-2.13-1.86-.768-1.34-.855-1.566.033-1.368.633-1.393-.25-.96.93-.243-1.565.783-1.437.348-2.753-.3-2.906-.338-1.468.28-1.478-.724-1.413-1.478-1.288.6-.997 10.98.02-.53-4.344.686-1.556 2.627-.273-.1-7.85 9.203.163.008-4.727 10.546 7.525-4.3.056 1.353 13.056 1.353 12.685.486.358-.624 2.028-11.25.044-.42.642-1.084-.2-1.58.57-1.958-.804-.9.066-.47 1.7zm131.026 73.47l-.785 2.164.785 3.716.973-.04 1.012.925 1.174 2.078.24 3.714-1.214.6-.856 2.017-1.83-1.796-.208-2.04.6-1.343-.162-1.155-1.107-.728-.772.264-1.614-1.38-1.474-.744.85-2.66.882-.993-.538-2.36.563-2.302.478-.768-.713-2.402-1.324-1.26 2.75.526.564.78.95 1.32zm-369.267-106.97l-1.088 2.7-.5 2.207-.204 4.077-.27 1.475.486 1.643.87 1.462.56 2.316 1.86 2.213.655 1.688 1.097 1.452 2.977.78 1.16 1.23 2.46-.82 2.137-.297 2.1-.528 1.764-.505 1.784-1.203.668-1.725.23-2.497.485-.872 1.9-.783 2.965-.694 2.483.104 1.7-.254.673.635-.095 1.44-1.507 1.77-.666 1.805.516.515-.42 1.277-.703 2.295-.7-.754-.587.05-.533.038-1.005 1.77-.5-.346-.34.134.022.43-2.593-.032-2.618.005-.002 1.645-1.266.007 1.044.974 1.036.672.312.63.454.176-.072.988-3.6.01-1.35 2.36.398.54-.325.676-.07.84-3.173-3.107-1.446-.94-2.3-.756-1.565.2-2.252 1.1-1.414.286-1.98-.763-2.1-.552-2.62-1.332-2.102-.407-3.174-1.355-2.346-1.396-.708-.78-1.57-.175-2.868-.928-1.167-1.34-3.013-1.674-1.405-1.866-.668-1.447.935-.3-.288-.85.644-.775.014-1.034-.946-1.346-.253-1.197-.94-1.524-2.47-3.016-2.82-2.388-1.364-1.915-2.407-1.26-.515-.757.427-1.92-1.43-.728-1.655-1.52-.7-2.193-1.5-.257-1.627-1.667-1.314-1.548-.123-.997-1.507-2.42-.994-2.477.043-1.25-2.028-1.297-.936.143-1.6-.903-.45 1.33.464 1.565.273 2.432.962 1.327 2.08 2.207.462.75.426.227.37 1.1.498-.044.563 2.04.852.802.597 1.112 1.762 1.6.93 2.9.833 1.354.778 1.442.155 1.617 1.352.1 1.124 1.387 1.017 1.36-.068.543-1.18 1.113-.497-.015-.74-1.843-1.835-1.735-2.022-1.48-1.434-.78.093-2.253-.426-1.678-3.263-2.354-.37.402-.708-.814-1.73-.758-1.653-1.824.205-.238 1.155.18 1.04-1.18.105-1.43-2.16-2.274-1.646-.886-1.033-2-1.04-2.123-1.3-2.6-1.14-2.963 3.186-.254 3.56-.36-.262.648 4.234 1.605 6.396 2.3 5.576-.023h2.223l.006-1.35h4.858l1.022 1.16 1.434 1.032 1.666 1.43.93 1.7.698 1.77 1.45.967 2.328.958 1.766-2.53 2.293-.062 1.976 1.28 1.407 2.184.97 1.858 1.654 1.798.618 2.195.785 1.466 2.187.963 2 .682z"/><path d="M758.904 446.324l.22 1.438 1.852-.334.916-1.15.645.262 1.656 1.7 1.177 1.873.16 1.88-.298 1.27.272.96.205 1.65.987.768 1.103 2.465-.054.942-1.988.186-2.652-2.064-3.317-2.212-.328-1.42-1.62-1.866-.387-2.313-1.012-1.524.308-2.038-.618-1.188.487-.5zm49.187 4.83l-2.064.952-2.43-.47-3.224-.001-.972 3.175-1.08.97-1.438 3.876-2.287.594-2.652-.78-1.345.244-1.634 1.4-1.8-.2-1.8.566-1.917-1.574-.47-1.862 2.055.955 2.167-.52.564-2.36 1.196-.526 3.36-.604 2-2.207 1.377-1.766 1.277 1.447.6-.952 1.34.1.3-3.162 2.16-1.947 1.414-2.2 1.134-.01 1.44 1.42.128 1.218 1.847.78 2.34.842-.2 1.095-1.88.14zm-235.687 44.8l2.1-.23 3.37.8.732-.36 1.952-.073 1-.852 1.682.046 3.066-1.102 2.23-1.643.454 1.27-.116 2.83.346 2.5.1 4.476.494 1.4-.837 2.062-1.088 2-1.785 1.802-2.554 1.13-3.16 1.417-3.168 3.147-1.08.538-1.957 2.096-1.155.685-.237 2.117 1.33 2.26.553 1.758.035.9.495-.15-.08 2.96-.455 1.4.66.52-.417 1.27-1.172 1.1-2.313 1.036-3.372 1.667-1.23 1.142.24 1.307.716.2-.24 1.64-2.127-.026-.24-1.378-.416-1.392-.24-1.1.5-3.428-.73-2.17-1.343-4.26 2.954-3.405.74-2.15.424-.27.317-1.746-.45-.876.12-2.203.546-2.035-.006-3.695-1.457-.934-1.334-.2-.605-.718-1.3-.612-2.34.058-.18-1.08-.266-2.055 8.508-2.37 1.614 1.38.772-.264 1.107.728.162 1.155-.6 1.343.208 2.04 1.83 1.796.856-2.017 1.214-.6-.24-3.714-1.174-2.078-1.012-.925-.973.04-.785-3.716zm-51.072 50.85l-2.084-2.4-1.097-2.295-.62-3.037-.7-2.243-.94-4.723-.063-3.63-.36-1.644-1.1-1.24-1.448-2.472-1.473-3.564-.613-1.855-2.28-2.87-.17-2.244 1.35-.555 1.68-.497 1.818.087 1.67 1.32.424-.206 11.365-.126 1.943 1.4 6.788.414 5.154-1.192 2.296-.664 1.817.168 1.107.66.02.242-1.58.66-.85.006-1.8 1.15-1.072-1.208-4.322 1.026-2.088.097-.082 10.57-2.764.105-.002 20.385-2.503 1.626-1.506.233-1.763-.602-1.258-.232-.473-1.358-1.107-.867zm418.993-23.056l2.3 1.856 1.458 1.382-1.065.723-1.543-.814-2.006-1.352-1.808-1.587-1.855-2.102-.388-1.007 1.206.042 1.57 1 1.234 1.012zm-458.78-93.6l.063-1.952-3.232-.648-.088-1.385-1.58-1.872-.376-1.3.222-1.396 1.797-.114 1.037-1.025 3.825-.248 2.5-.46.24-1.785 1.533-1.94-.008-6.75 3.954-1.317 8.118-5.85 9.608-5.752 4.435 1.308 1.577 1.66 1.984-1.123.7 4.677 1.05.777.045.95 1.166 1.02-.6 1.278-1.08 5.98-.148 3.796-3.576 2.736-1.2 3.8 1.168 1.064-.007 1.845 1.798.066-.28 1.347-.792.164-.1.9-.52.063-1.897-3.13-.66-.115-2.192 1.6-2.17-.835-1.5-.167-.8.402-1.644-.087-1.654 1.22-1.43.07-3.393-1.478-1.33.703-1.43-.05-1.05-1.08-2.8-1.07-3.014.34-.73.62-.395 1.646-.803 1.152-.195 2.543-2.138-1.64-1.005.008z"/><path d="M499.336 450.333l-2.9 1.006-1.065-.147-1.078.626-2.242-.06-1.5-1.748-.924-2.025-1.985-1.845-2.107.035-2.474-.002.16-4.523-.07-1.8.528-1.778.864-.865 1.36-1.75-.296-.76.552-1.14-.63-1.684.1-.944.195-2.543.803-1.152.395-1.646.73-.62 3.014-.34 2.8 1.07 1.05 1.08 1.43.05 1.33-.703 3.393 1.478 1.43-.07 1.654-1.22 1.644.087.8-.402 1.5.167 2.17.835 2.192-1.6.66.115 1.897 3.13.52-.063 1.1 1.136-.305.514-.15.946-2.36 2.197-.742 1.808-.395 1.47-.595.63-.566 1.975-1.5 1.16-.434 1.424-.63 1.132-.262 1.167-1.927.945-1.574-1.153-1.063.046-1.67 1.642-.8.025-1.334 2.702zM235.178 432.56l-.97-.895-1.3-1.147-.617-.96-1.182-.896-1.405-1.3.312-.442.463.43.212-.202.872-.117.35-.654.4-.026-.06-1.4.658-.067.585.02.605-.766.827.58.288-.356.516-.34.98-.8.046-.593.27.025.36-.688.293-.084.478.44.562.13.62-.367.708-.002.974-.376.388-.393.962.06-.242.277-.143.643.286 1.053-.646.98-.3 1.154-.1 1.262.15.737.07 1.286-.428.28-.262 1.22.192.752-.573.727.13.767.43.466-.672.602-.827-.2-.465-.584-.9-.237-.645.37-1.847-.752zm254.15-144.693l-.17.908.484.158.212.408.085.37.4.14.03.197-.348.265-.385.024v.292l.267.465-.385.452.4.125.792-.77.48-.708v-.48l-.167-.333-.458-.23.105-.52-.105-.458.416-1 .412-.52 1.164-.42 2.33.133.524 1.583-.7 4.225-.7 1.7-1.685.002.47 4.7-1.54-1.036-1.775-1.956-2.598.93-2.053-.352.702-1.24.917-1.2 1.28-1.25.757-2.092.245-2.182zm65.147-112.007l8.77 6.24-3.6 2.226 3.072 5.115-4.77 3.188-2.265.724 1.188-5.592-3.598-3.252-4.354 2.775-1.375 5.854-2.673 3.44-3-1.87-3.66.384-3.116-4.153-1.68 2.088-1.74.323-.412 5.083-5.284-1.224-.742 4.217-2.692-.025-1.85 5.243-2.805 7.867-4.354 9.5 1.02 2.232-.976 2.554-2.78-.1-1.82 5.906.172 8.044 1.792 2.978-.928 6.727-2.333 3.812-1.236 3.145-1.88-3.35-5.536 6.266-3.738 1.245-3.877-2.715-1.002-5.864-.887-13.256 2.582-3.875 7.403-5.184 5.536-6.586 5.133-9.3 6.737-13.762 4.696-5.674 7.705-9.893 6.153-3.592 4.613.44 4.27-6.995 5.113.38zM722.58 382.7l-.217 1.356.37 2-.32 1.235-2.335.052-3.373-.727-2.167-.296-1.617-1.593-3.843-.406-3.657-1.767-2.644-1.552-2.716-1.202 1.088-3 1.78-1.46 1.162-.773 2.248.993 2.83 2.094 1.575.46.942 1.533 2.178.628 2.276 1.392 3.172.725zm238.047 206.18l.636 1.53 1.994-1.503.8 1.567.003 1.57-1.043 1.74-1.833 2.797-1.435 1.54 1.034 1.856-2.163.048-2.4 1.465-.75 2.568-1.594 4.027-2.2 1.802-1.4 1.16-2.583-.086-1.815-1.338-3.048-.284-.47-1.48 1.507-2.957 3.525-3.875 1.8-.73 2.015-1.472 2.403-2 1.683-1.975 1.247-2.808 1.063-.946.416-2.074 1.967-1.703zm4.462-17.013l2.032 3.665.06-2.383 1.266.95.42 2.65 2.257 1.15 1.895.283 1.603-1.347 1.42.407-.68 3.15-.854 2.093-2.14-.074-.75 1.097.26 1.56-.412.678-1.06 1.974-1.4 2.532-2.167 1.487-.48-.98-1.17-.536 1.617-3.04-.918-2.012-3.018-1.452.08-1.308 2.026-1.253.473-2.744-.13-2.282-1.136-2.344.075-.613-1.34-1.43-2.206-3.04-1.173-2.4 1.04-.266 1.526 1.887 2.182.885zM640.54 403.44l-1.047 2.042-1.27-.156-.583.708-.45 1.504.345 1.975-.265.362-1.3-.01-1.75 1.1-.273 1.43-.642.618-1.744-.023-1.098.737.014 1.18-1.356.8-1.547-.275-1.875.982-1.296.165-.915-2.036-2.192-4.84 8.4-2.957 1.87-5.972-1.285-2.135.073-1.22.817-1.256.008-1.245 1.27-.6-.496-.425.23-1.997 1.433-.012 1.257 2.095 1.565 1.108 2.057.398 1.66.555 1.266 1.74.756 1.005 1.004.382-.006.673-1.02 1.792-.448.84zm-6.925-14.545l-.365.562-.534-1.057.817-1.06.347.27zm-376.48 54.57l-.935-.8-.6-1.518.693-.75-.7-.194-.524-.93-1.397-.783-1.226.18-.57.98-1.133.708-.6.098-.275.586 1.338 1.526-.766.36-.405.416-1.305.143-.485-1.678-.365.478-.925-.166-.565-1.13-1.15-.187-.728-.33-1.203.004-.087.6-.322-.426.148-.558.234-.57-.1-.5.42-.334-.584-.42-.016-1.136 1.085-.253 1.007 1.013-.058.598 1.12.127.265-.23.77.693 1.38-.204 1.192-.712 1.703-.57.957-.844 1.548.166-.104.278 1.563.096 1.248.488.915.848 1.055.78-.34.412.65 1.658-.53.835-.903-.2z"/><path d="M280.382 513.398l-.752 1.5-1.442.75-2.8-1.683-.243-1.2-5.56-2.924-5.028-3.168-2.163-1.777-1.16-2.375.46-.827-2.374-3.75-2.765-5.242-2.65-5.622-1.146-1.282-.883-2.07-2.178-1.83-1.998-1.135.908-1.25-1.36-2.667.872-1.957 2.236-1.762.332 1.16-.8.665.076 1.024 1.16-.223 1.132.302 1.177 1.4 1.585-1.15.53-1.883 1.718-2.428 3.37-1.1 3.058-2.918.873-1.8-.392-2.115.748-.265 1.865 1.32.895 1.314 1.298.718 1.652 2.92 2.087.35 1.545-.737 1.013.482 1.683-.24 2.147 1.306-1.8 2.84.837.066 1.404 1.484-2.527-.13-.376.42-2.298.538-3.206 1.902-.204 1.306-.715.974.28 1.516-1.694.8v1.185l-.74.514 1.167 2.533 1.558 1.714-.593 1.212 1.86.164 1.06 1.508 2.475.073 2.3-1.666-.187 4.3 1.275.326 1.582-.488 2.424 4.58-.602.967-.14 2.012-.054 2.443-1.096 1.44.502 1.07-.643.972 1.206 2.437zm632.185-30.718l-.785.28-1.214-1.077-1.228-1.78-.604-2.13.4-.27.3.832.85.635 1.36 1.775 1.324.95zm-10.926-3.76l-1.47.23-.442.785-1.533.68-1.44.655-1.5-.003-2.3-.813-1.602-.78.232-.866 2.514.4 1.534-.22.423-1.34.402-.07.272 1.485 1.6-.214.8-.957 1.565-.997-.3-1.646 1.68-.053.566.458-.057 1.55zm-13.434 5.354l2.504 1.844 1.82 2.987 1.606-.094-.113 1.25 2.165.48-.84.533 2.98 1.2-.3.82-1.857.198-.7-.734-2.4-.318-2.832-.426-2.18-1.804-1.6-1.552-1.457-2.465-3.657-1.23-2.375.802-1.712.93.357 2.078-2.202.97-1.57-.472-2.9-.118-.095-18.26 4.865 1.92 5.184 1.597 1.932 1.43 1.562 1.405.426 1.647 4.672 1.73.682 1.486-2.58.302zm16.678-8.1l-.877.745-.528-1.65-.652-1.08-1.27-.915-1.596-1.2-2.024-.82.78-.673 1.514.78.953.613 1.178.67 1.122 1.172 1.065.894zm-75.04-36.066l.285 1.87.165 1.576-.955 2.566-1.024-2.86-1.3 1.424.896 2.065-.804 1.312-3.3-1.625-.788-2.03.855-1.334-1.776-1.33-.88 1.165-1.32-.108-2.075 1.566-.464-.822 1.1-2.368 1.766-.792 1.53-1.062 1 1.275 2.132-.77.457-1.257 1.982-.075-.167-2.184 2.273 1.34.235 1.42zm-6.713-5.263l-1.008.93-.878 1.785-.88.835-1.727-1.952.577-.757.704-.792.3-1.76 1.546-.167-.45 1.908 2.075-2.737zm-15.36 2.72l-3.73 2.675 1.375-1.97 2.025-1.743 1.684-1.957 1.47-2.818.5 2.314-1.85 1.56zm9.474-7.3l1.684.88 1.784-.004-.055 1.187-1.298 1.205-1.78.85-.1-1.317.2-1.448zm10.148-.772l.788 3.175-2.164-.753.06.953.687 1.75-1.334.634-.116-1.992-.845-.147-.438-1.72 1.65.227-.036-1.077-1.714-2.176 2.692.063zm-11.146-2.6l-.744 2.467-1.2-1.423-1.432-2.18 2.402.105zm-.578-15.743l1.73.838.864-.764.255.746-.456 1.215.957 2.094-.738 2.417-1.653.96-.44 2.332.627 2.294 1.486.317 1.24-.34 3.502 1.592-.267 1.56.915.687-.292 1.316-2.185-1.402-1.036-1.504-.722 1.05-1.785-1.715-2.547.424-1.396-.634.143-1.187.876-.732-.837-.666-.362 1.038-1.384-1.655-.42-1.257-.104-2.774 1.13.955.3-4.555.914-2.656zM517.608 297.228l-1.15-2.864.22-1.563-.694-2.45-1.018-1.65.782-1.244-.656-2.393 1.916-1.395 4.376-2.216 3.53-1.638 2.798.82.2 1.177 2.704.06 3.454.546 5.156-.072 1.438.512.673 1.47.122 2.1.778 1.78-.017 1.848-1.68.94.865 2.117.053 2.013 1.4 3.9-.3 1.235-1.4.5-2.546 3.6.723 1.925-.613-.248-2.664-1.648-2.018.608-1.324-.44-1.657.92-1.414-1.523-1.153.585-.158-.26-1.3-2.13-2.085-.264-.265-1.367-1.924-.5-.418 1.13-1.523-.905.175-1.2-2.096-.385zm168.627 54.784l2.072 1.627.83 2.66 4.6 1.4-2.708 2.866-3.125.504-4.254-.828-1.374 1.46.993 2.946.974 2.254 2.264 1.634-2.392 1.903.044 2.328-2.723 3.25-1.757 3.25-2.933 3.326-3.256-.24-3.1 3.295 1.835 1.402.32 2.4 1.585 1.57.556 2.637-6.17-.008-1.867 2.037-2.055-.77-.836-2.2-2.166-2.344-5.166.58-4.556.057-3.948.433 1.056-3.595 4.044-1.6-.23-1.442-1.342-.508-.077-2.777-2.68-1.396-1.13-1.926-1.387-1.686 4.698 1.637 2.804-.48 1.676.408.568-.702 1.953.282 3.643-1.335.1-2.75 1.562-1.843 2.088.005.307-.914 2.143-.428 1.037.306 1.095-.924-.154-1.98 1.2-2.004 1.784-.844-1.102-2.22 2.667.105.77-1.214-.117-1.302 1.397-1.43-.32-1.704-.662-1.46 1.636-1.508 3-.73 3.218-.405 1.425-.645zM289.657 411.14l1.433.26.506.584-.72.74-2.1-.018-1.64.104-.163-1.256.397-.43zm285.51-43.018l-.001 2.014-.415.962-1.318.443.12-.86.716-.45-.704-.37.586-2.196zM450.17 334.816l1.017-.955 1.145-.55.702 1.84 1.656-.004.48-.474 1.634.132.784 1.874-1.296 1.006-.036 2.875-.455.536-.113 1.72-1.2.3 1.123 2.165-.774 2.35.967 1.057-.385.963-1.04 1.322.234 1.16-1.127.907-1.478-.5-1.447.385.428-2.745-.263-2.178-1.255-.328-.67-1.353.223-2.355 1.118-1.315.2-1.473.585-2.207-.063-1.568-.56-1.336zM299.743 527.244l1.105-3.6.07-1.604 1.345-2.6 4.886-.86 2.604.04 2.612 1.514.048.914.83 1.654-.186 4.065 2.96.578 1.144-.6 1.894.815.525.902.26 2.778.327 1.172 1.046.136 1.052-.493 1.008.553-.001 1.682-.38 1.817-.55 1.783-.46 2.742-2.543 2.398-2.217.505-3.15-.48-2.828-.854 2.76-4.732-.403-1.362-2.888-1.202-3.426-2.262-2.292-.464zm318.224-134.83l-.186-2.24.756-1.624.766-.334.848.972.05 1.8-.608 1.8-.778.218zm-78.787-81.3l1.2-.895 1.734.464 1.798.015 1.302 1.018.957-.64 2.07-.4.706-.98 1.183.001.854.4.87 1.238.9 1.748 1.618 2.442.1 1.785-.295 1.724.502 1.826 1.25.733 1.317-.64 1.272.683.065 1.022-1.36.85-.852-.37-.784 4.7-1.65-.406-2.04-1.412-3.3.904-1.4.988-4.117-.204-2.155-.604-1.086.284-.807-1.598-.513-.68.65-.66-.692-.488-.88.878-1.635-1.14-.22-1.628-1.7-.935-.314-1.27-1.52-1.58 2.248-.762 1.696-2.76 1.326-2.798z"/><path d="M534.03 321.157l1.7.935.22 1.628 1.635 1.14.88-.878.692.488-.65.66.513.68-.692.883.252 1.415 1.362 1.66-1.07 1.195-.47 1.2.304.45-.46.534-1.3.063-.955.22-.093-.283.336-.45.314-.924-.398.02-.545-.705-.46-.18-.367-.607-.524-.238-.398-.54-.503.212-.388 1.27-.67.274.23-.327-1.07-.793-.922-.413-.4-.53-.744-.66.66-.17.4-1.82-1.352-1.5.702-1.727-1.016.01 1.08-1.488-.9-1.134-.68-1.55 2.148-1.06 1.75.18 1.52 1.58zm474.487-105.15l-2.78 2.973-4.596.698-.07 6.463-1.123 1.347-2.625-.193-2.138-2.264-3.728-1.917-.627-2.9-2.848-1.102-3.188.875-1.523-2.37.6-2.552-3.358 1.635 1.265 3.194-1.6 2.87-3.604 2.885-3.634-.478 2.53 3.442 1.67 5.2 1.295 1.668.325 2.532-.724 1.602-5.226-1.317-7.837 4.5-2.493.688-4.3 4.096-4.07 3.505-1.03 2.553-4-3.9-7.306 4.42-1.275-2.078-2.7 2.394-3.75-.763-.903 3.63-3.364 5.218.1 2.137 3.193 1.174-.376 7.458-2.603.186-1.2 4.154 1.167 2.104-4.903 2.467-.973 5.405-4.18 1.135-.84 4.663-4.042 4.183-1.036-3.085-1.2-6.693-1.564-10.647 1.348-6.954 2.365-3.07.146-2.44 4.357-1.18 5-6.78 4.826-5.727 5.04-4.57 2.254-8.366-3.406.5-1.685 4.922-7.1 6.36-2.297-7.138-7.238 2-7.018 9.56 2.315 3.377-6.258 1.42-4.335.557.203-3.946-4.358-.84L892 257.62l-8.573-.94-9.223 1.62-9.083 10.33-10.745 11.777 4.417.6 1.38 3 2.724 1.055 1.794-2.378 3.076.3 4.048 5.2.095 3.924-2.2 4.512-.237 5.266-1.265 6.848L864 314.76l-.94 2.817-3.806 4.662-3.777 4.528-1.8 2.283-3.736 2.245-1.77.05-1.76-1.858-3.764 2.792-.438 1.258-.393-.66-.017-1.93 1.432-.103.404-4.553-.74-3.358 2.407-1.4 3.402.703 1.886-3.888.96-4.462 1.1-1.5 1.474-3.76-4.634 1.24-2.43 1.647-4.26-.005-1.135-3.945-3.32-3.035-4.88-1.38-1.037-4.284-.977-2.73-1.05-1.937-1.733-4.6-2.462-1.7-4.196-1.394-3.718.127-3.484.845-2.315 2.313 1.538 1.095.035 2.522-1.56 1.45-2.53 4.725.026 1.93-3.952 2.74-3.365-1.632-3.346.36-1.468-1.457-1.682-.472-4.106 3.06-3.7.712-2.577 1.062-3.532-.697-2.6.045-1.702-2.203-2.746-2.092-2.8-.577-3.547.573-2.65.8-3.983-1.84-.534-3.322-3.297-1.15-2.545-.527-3.14-1.87-2.904 4.66 1.14 2.6-2.726 3.034-4.054-1.1-2.8-.156-1.874-2.042-2.925-.065-2.438-1.354-4.265 2.07-5.35 3.74-2.956.744-1.098.352-1.487-2.634-3.612.58-1.193-1.843-1.96-.848-1.35-2.545-1.548-.8-4.03 1.14-3.862-2.565-1.494 2.333-6.266-11.576-3.577-3.66 1.025-1.504-7.026 4.494-2.7.268.232-2.583-3.602-1.63-2.927 1.166-.883-5.012-5.04-1.06-2.52 2.033-7.016 1.8-1.37 1.2-10.492 1.663-1.285 1.618 2.024 3.208-2.692 1.204.525 1.254-2.7 2.223 4.544 3.098-.702 2.106-3.938-.2-.814 1.3-3.586-2.293-4.445.1-2.976 1.868-3.32-1.8-6.18-3.102-4.38.117-5.788 4.85-.35 3.193-2.883-2.532-2.237 4.77.82.874-1.618 3.215 2.38 2.837 2.08-.116 1.787 2.76-.284 2.102 1.424.656-1.278 2.4-2.718.66-2.787 4.088 2.548 3.695-.276 2.586 3.062 4.456-1.674 1.506-.48.945-1.24-.253-1.927-2.266-.788-.126-1.763-.87-.858-1.55-2.615-.794-1.7.597-.5-.706-3.818-1.83-4.128-.622-2.37-.658-.342.455-3.575-3.274-3.2-1.477-2.422-2.32 2.04-.636 2.327-3.354-1.568-1.605 4.132-1.667-.074-.9-2.517.663.088-1.832 1.445-1.16 2.713-.306.44-1.395-.62-2.327 1.14-2.233-.033-1.263-4.133-1.4-1.64.047-1.73-2.043-2.15.693-3.56-1.542.06-.868-.997-1.926-2.236-.216-.232-1.392.7-.913-1.792-2.575-2.907.442-.852-.23-.708 1.037-1.047-.184-.7-2.937-.658-1.54.54-.435 2.262.162 1.1-1.022-.808-1.253-1.9-.832.17-.857-1.14-.87-1.758-3.153.6-1.314-.274-2.308-2.74-1.183-1.47.593-.398-1.236-2.952-1.256-.9-3-.24-2.492-1.35-1.194 1.2-1.66L552.4 260l1.995-3.133-.422-.96 3.187-3.07-2.938-2.684 6.003-7.405 2.604-3.453 1.055-3.104-4.15-4.256 1.146-4.145-2.524-4.854 1.888-5.764-3.26-7.957 2.587-5.478-4.294-5 .4-5.404 2.265-.724 4.77-3.188 2.893-2.813 4.606 4.86 7.678 1.876 10.594 8.646 2.152 3.508.185 4.796L587.7 214l-4.578 1.846-12.517-5.313-2.06.9 4.57 5.097.18 3.154.183 6.753 3.6 1.966 2.2 1.657.362-3.107-1.7-2.8 1.785-2.505 6.778 4.1 2.36-1.593-1.887-4.877 6.535-6.742 2.588.404 2.618 2.43 1.633-4.8-2.338-4.283 1.373-4.406-2.06-4.692 7.843 2.442 1.602 4.183-3.55.908.02 4.038 2.207 2.438 4.332-1.54.686-4.6 5.857-3.525 9.785-6.543 2.114.382-2.764 4.64 3.478.785 2-2.584 5.255-.2 4.164-3.193 3.195 4.62 3.186-5.087-2.938-4.577 1.458-2.663 8.282 2.443 3.88 2.488 10.16 8.8 1.875-3.975-2.85-4.1-.082-1.677-3.38-.782.925-3.827-1.5-6.5-.085-2.737 5.175-8 1.84-8.42 2.085-1.878 7.423 2.514.585 5.183-2.658 7.283 1.744 2.78.902 5.938-.637 11.073 3.093 4.73-1.203 5.008-5.492 10.198 3.205 1.024 1.115-2.514 3.085-1.815.744-3.553 2.427-3.5-1.634-4.26 1.3-5.083-3.066-.644-.674-4.418 2.237-8.278-3.642-7.033 5.018-6.042-.648-6.62 1.398-.216 1.473 5.2-1.105 8.667 3 1.592-1.278-6.373 4.692-3.58 5.82-.488 5.18 5.18-2.493-7.622-.28-10.282 4.876-2.02 6.744.444 6.075-1.32-2.278-5.38 3.245-7.016 3.22-.3 5.452-5.513 7.403-1.514.936-3.153 7.362-1.082 2.294 2.606 6.293-6.237 5.15.2.772-5.238 2.68-5.334 6.62-5.312 4.8 4.208-3.818 3.13 6.352 1.917.757 6.034 2.562-2.943 8.197.163 6.32 5.843 2.25 4.35-.698 5.854-3.102 3.242-7.368 5.917-2.106 3.08 3.477 1.433 4.148 2.552 2.523-1.9 1.43 6.393 1.23-2.56 4.483-1.575 8.996 1.646.684 4.576 11.722 1.43.16-7.473 5.95 1.742 4.477-.054 4.527 5.138 1.3 6.038-1.66 3.836 3.52 6.982 4.4 3.493 2.705-9.178 4.498 3.996 4.778-2.376 5.427 2.716 2.065-2.475 4.587 1.242-2.024-8.398 3.702-4.067 25.323 6.06 2.387 5.355 7.34 6.653 11.322-1.623 5.582 1.414 2.334 3.498-.34 6.016 3.454 2.286 3.753-1.64 4.973-.2 5.293 1.575 5.314-.887 4.884 6.994 3.475-2.483-2.268-5.074 1.25-3.618 8.945 2.286 5.832-.486 8.064 3.843 3.925 3.44 6.87 5.858 7.352 7.34-.24 4.437 1.9 1.745-.65-5.146 7.6 1.068zm-127.425 90.497l-2.82-7.684-1.157-4.5.072-4.496-.97-4.503-.73-3.15-1.248.673 1.113 2.205-2.592 2.166-.248 6.296 1.643 4.4-.123 5.852-.65 3.237.32 4.537-.313 4.015.52 3.4 1.838-3.134 2.125 2.445.078-2.836-2.732-4.23 1.725-6.107zm-343.02-27.485l-2.936-.856-3.87 1.583-.64 2.127 3.453.545 5.156-.072-.225-1.228.3-1.327zm442.123-100.118l3.662-.52 2.9-2.065.24-1.188-4.056-2.515-2.376-.02-.36.37-3.574 3.645.5 2.726zm-109.878-27.1l-2.66 3.915.5.518 5.746 1.084 4.25-.068-.34-2.57-3.983-3.8zm24.574-9.528l3.24-4.248-7.036-2.875-5.227-1.68-.67 3.585 5.2 4.267zm-25.128-1.694l10.335.296 2.205-8.145-10.135-6.07-7.404-.512-3.7 2.18-1.507 7.752 5.555 7.013zm-247.12 25.947l-2.867 1.958.4 4.832 5.075 2.348.744 3.818 9.16 1.102 1.656-.743-5.363-7.106-.57-7.516 4.395-9.143 4.18-9.82 8.7-10.168 8.563-5.338 9.935-5.74 1.884-3.706-1.95-4.827-5.457 1.604-4.802 4.492-9.332 2.222-9.257 7.4-6.27 5.85.76 4.87-6.713 9.03 2.578 1.22-5.562 8.27zM770.12 98.592l.833-5.72-7.107-8.343-2.106-.985-2.304 1.696-5.122 18.604zM605.9 69.28l3.037 3.876 3.277-2.693.4-2.72 2.52-1.272 3.764-2.235 1.085-2.624-4.16-3.847-2.643 2.903-1.6 4.125-.573-4.65-4.26.2-5.474 3.152 6.24.52zm131.25 13.046l4.653 5.73 7.8 4.202 6.118-1.803.7-13.623-6.456-16.04-5.448-9.023-6.065 4.1-7.28 11.834 3.825 3.27zM560.793 466.8l1.114 1.573-.162 1.64-.8.353-1.5-.182-.86 1.587-1.702-.22.26-1.525.385-.215.104-1.658.806-.777.68.284zm34.657-49.33l-.364-1.24-.846-.878-.216-1.164-1.448-1.048-1.494-2.46-.8-2.403-1.94-2.04-1.25-.488-1.857-2.842-.324-2.084.12-1.786-1.608-3.362-1.315-1.2-1.514-.632-.922-1.757.153-.695-.78-1.6-.82-.7-1.095-2.312-1.707-2.523-1.43-2.164-1.396.015.436-1.74.124-1.114.348-1.275 3.12.508 1.212-.984.67-1.157 2.14-.445.462-1.08.927-.55-2.795-3.256 5.616-1.646.534-.497 3.377.892 4.178 2.292 7.906 6.5 5.213.255 2.498.308.698 1.516 1.983-.082 1.098 2.727 1.38.72.48 1.102 1.9 1.314.17 1.286-.28 1.034.354 1.04.806.865.374 1 .42.753.847.6.778-.218.532 1.17.107.706 1.075 3.08 8.428 1.524.565-.638 1.285 2.135-1.87 5.972-8.4 2.957-8.085 1.13-2.617 1.32-2 3.07-1.3.486-.7-.972-1.075.146-2.7-.292-.514-.292-3.236.067-.76.264-1.152-.76-.742 1.435.287 1.228z"/><path d="M930.06 493l.784.974-1.96-.018-1.065-1.743 1.675.685zm-3.552-1.726l-1.093.063-1.72-.286-.587-.436.176-1.12 1.85.444.913.593zm2.32-.77l-.423.52-2.078-2.447-.583-1.683h.953l1 2.254zm-5.06-3.56l.12.566-2.197-1.194-1.535-1-1.052-.936.418-.286 1.3.674 2.3 1.293zm-6.55-2.782l-.56.16-1.226-.64-1.152-1.153.145-.467 1.675 1.185zM570.73 437.158l-.388-.056.048-1.407-.337-.972-1.444-1.118-.337-2.047.337-2.1-1.3-.196-.193.636-1.684.147.673.83.24 1.707-1.54 1.558-1.396 2.04-1.444.3-2.36-1.652-1.06.584-.3.825-1.444.534-.096.582h-2.792l-.385-.582-2.022-.097-1 .484-.77-.242-1.444-1.65-.48-.777-2.022.388-.77 1.312-.722 2.52-.963.532-.86.307-.228-.13-.973-.812-.18-.877.455-1.175-.008-1.153-1.617-1.77-.318-1.215.034-.688-1.03-.838-.03-1.654-.588-1.1-.984.165.282-1.05.727-1.192-.318-1.187.922-.88-.585-.672.74-1.78 1.28-2.127 2.418.203-.14-11.6.035-1.243 3.224-.01v-5.963h33.272l.903 2.94-.614.542.407 3.06 1.03 3.524 1.07.724 1.534 1.084-1.42 1.67-2.065.48-.883.894-.276 1.933-1.208 4.25.298 1.153-.447 2.466-1.14 2.817-1.7 1.413-1.202 2.173-.282 1.16-1.328.794-.83 2.96zM537.7 217.743l-2.72 4.7.438 4.016-4.46 5.14-5.415 5.338-2.04 8.412 1.996 4.067 2.68 3.14-2.576 6.226-2.916 1.265-1.07 8.838-1.593 4.758-3.4-.485-1.587 3.95-3.246.226-.9-4.7-2.347-5.8-2.133-7.5 1.236-3.145 2.333-3.812.928-6.727-1.792-2.978-.172-8.044 1.82-5.906 2.782.1.975-2.554-1.02-2.232 4.354-9.5 2.804-7.867 1.852-5.243 2.692.025.742-4.217 5.284 1.224.412-5.082 1.74-.323 3.737 3.802 4.377 5.153.074 11.12.946 2.7zm-23.486 99.02l2.316.314 1.415-.922 2.452-.1.535-.7.47.045.545 1.375-2.232 1.076-.273 1.627-.974.4.01 1.116-1.1-.077-.954-.652-.513.674-1.954-.136.624-.362-.67-1.707zm30.612-212.02l-6.263 5.36-4.947-3.02 1.935-3.424-1.694-4.343 5.8-2.782 1.113 5.175zm-18.148-26.676l9.23 11.292-7.056 5.66-1.558 10.086-2.46 2.5L523.5 118.1l-3.38.478-6.03-7.644 2.543-4.623-4.203-3.862-5.463-11.823-2.18-11.786 7.644-5.686 1.536 5.56 3.993-.217 1.065-5.435 4.117-.563zm20.176-11.458l5.495 5.8-4.158 8.517-8.132 1.806-8.27-2.562-.5-4.322-4.023-.28-3.068-7.478 8.658-4.723 4.07 4.075 2.835-5.1zm-18.5 237.672l.158.26 1.153-.585 1.414 1.523 1.657-.92 1.324.44 2.018-.608 2.664 1.648-.777 1.108-.547 1.705-.598.43-3.003-1.28-.92.258-.658.992-1.316.524-.304-.27-1.365.65-1.114.124-.226.84-2.353.5-1.034-.454-1.427-1.07-.28-1.457.225-.535.398-.932 1.242.07.957-.44.076-.396.537-.202.183-.973.644-.186.434-.774zM443.43 444.695l-.755-.208-2.02-1.13-1.46-1.505-.5-1.028-.343-2.08 1.498-1.24.324-.783.48-.6.772-.064.654-.533 2.242.003.78 1 .608 1.187-.1.82.45.737-.032 1.033.772-.16-1.305 1.313-1.265 1.526-.148.816zm-14.8-19.285l-1.156-2.236-1.4-1.025 1.233-.547 1.36-2.028.666-1.487.96-.93 1.393.25 1.368-.633 1.566-.033 1.34.855 1.86.768 1.697 2.13 1.85 1.98.128 1.8.554 1.642 1.05.804.24 1.106-.13.9-.405.16-1.53-.226-.2.318-.618.064-2.016-.696-6.535-.15-.75.32-.93-.092-1.485.465-.46-2.2 2.552.06.674-.4.502-.024 1.04-.66 1.203.605 1.218.05 1.214-.643-.567-.83-.924.483-.87-.013-1.107-.706-.9.046-.633.68z"/><path d="M618.875 430.685l-.063-.787-1.064.007-1.327.975-1.486.286-1.292.422-.896.057-1.597.1-1.002.52-1.4.187-2.468.88-3.052.336-2.643.725-1.392-.01-1.265-1.187-.55-1.173-.912-.524-1.033 1.52-.6 1.005 1.035 1.56 1.034 1.36 1.07 1.007 9.167 3.344 2.36-.018-7.924 8.416-3.652.123-2.5 1.97-1.798.052-.767.88-2.45 3.165.033 10.148 1.66 2.3.633-.66.646-1.47 3.07-3.374 2.613-2.118 4.195-2.766 2.805-2.257 3.298-3.807 2.394-3.13 2.406-4.106 1.734-3.587 1.35-3.147.8-3.055.593-1.024-.01-1.5zM315.27 446.973l3.36.56.302-.505 2.267-.202 3.014.752-1.46 2.405.222 1.912 1.1 1.654-.5 1.2-.246 1.275-.715 1.173-1.606-.6-1.325.285-1.13-.248-.28.807.47.554-.252.57-1.525-.228-1.712-2.424-.368-1.574-.898-.003-1.243-2.027.517-1.44-.15-.66 1.702-.73zm255.46-9.815l.033 2.2-.42.86-1.5.07-.955 1.602 1.723.202 1.42 1.37.492 1.122 1.28.65 1.658 3.047-3.626 3.512-1.724 1.284-1.973-.007-2.257.654-1.783-.624-1.154.76-2.47-1.855-.666-1.192-1.56.6-1.297-.183-.75.47-1.26-.34-1.7-2.307-.45-.887-2.096-1.108-.708-1.68-1.168-1.214-1.886-1.462-.026-.914-1.535-1.136-1.907-1.1.86-.307.963-.532.722-2.52.77-1.312 2.022-.388.48.777 1.444 1.65.77.242 1-.484 2.022.097.385.582h2.792l.096-.582 1.444-.534.3-.825 1.06-.584 2.36 1.652 1.444-.3 1.396-2.04 1.54-1.558-.24-1.707-.673-.83 1.684-.147.193-.636 1.3.196-.337 2.1.337 2.047 1.444 1.118.337.972-.048 1.407zm-341.386-11.144l-.3.674-1.624-.043-1-.274-1.16-.57-1.558-.178-.794-.616.087-.42.96-.725.526-.317-.15-.34.656-.177.827.242.604.573.847.46.104.386 1.23-.34.577.204.38.3zM584.27 364.85l-5.5 3.54-3.177-1.334.38-.505-.043-1.363.688-1.833 1.53-1.27-.46-1.327-1.26-.173-.262-2.608.686-1.412 1.502-1.513.152-1.94.918.678 3.087-.97 1.492.657 2.306-.01 3.227-1.3 1.5.06 3.2-.545-1.437 2.18-1.535.857.265 2.52-1.06 4.12zM565.427 541l-.57 1.4-1.64.34-1.673-1.697-.026-1.078.765-1.167.265-.902.8-.22 1.415.567.416 1.392zm-49.28-113.474l.28-1.347-1.798-.066.007-1.845-1.168-1.064 1.2-3.8 3.576-2.736.148-3.796 1.08-5.98.6-1.278-1.166-1.02-.046-.95-1.048-.777-.7-4.677 2.83-1.658 11.182 5.776 11.183 5.7.14 11.6-2.418-.203-1.28 2.127-.74 1.78.585.672-.922.88.318 1.187-.727 1.192-.282 1.05.984-.165.588 1.1.03 1.654 1.03.838-.034.688-1.775.485-1.423 1.148-2.027 3.086-2.638 1.308-2.708-.176-.8.26.278.992-1.463.984-1.2 1.098-3.53 1.076-.7-.637-.465-.054-.516.722-2.32.212.44-.76-.885-1.94-.394-1.166-1.22-.478-1.656-1.647.6-1.334 1.278.284.8-.202 1.566.028-1.526-2.575.102-1.886-.187-1.9zm152.64 191.766l1.8 1.336 2.65.533.1.813-.785 1.958-4.304.28-.07-2.293.414-1.76z"/><path d="M480.733 446.5l-2.257.597-.626-.984-.748-1.778-.223-1.397.62-2.533-.704-1.027-.267-2.222.005-2.053-1.17-1.46.207-.884 2.455.06-.357 1.493.857.836.974 1 .106 1.386.565.582-.128 6.46zm282.403-17.064l-2.517-1.3-2.398.053.4-2.247-2.47.017-.222 3.143-2.424 6.656.192 2.044 1.826.1 1.138 2.572.504 2.434 1.564 1.608 1.7.326 1.453 1.455-.916 1.15-1.852.335-.22-1.438-2.288-1.228-.487.5-1.108-1.076-.48-1.4-1.5-1.586-1.36-1.335-.46 1.653-.53-1.562.306-1.758.826-2.708 1.358-2.9 1.54-2.65-1.096-2.6.044-1.328-.32-1.6-1.87-2.284-.67-1.446.968-.533 1.026-2.518-1.148-1.917-1.78-2.13-1.356-2.572 1.184-.534 1.278-3.2 1.98-.133 1.635-1.286 1.607-.687 1.213.917.16 1.78 1.894.136-.7 3.104.066 2.626 2.955-1.746.84.517 1.642-.085.565-1.02 2.12.2 2.133 2.378.175 2.875 2.27 2.527-.125 2.443-.913 1.297-2.628-.413-3.625.55-1.796 2.385zm-88.52-88.558l-1.026 1.126-3.052-.6-.266 2.096 3.04-.28 3.463 1.174 5.302-.547.7 3.323.92-.36 1.703.812-.098 1.38.42 2.012-2.892-.006-1.93-.26-1.747 1.57-1.244.347-.978.733-1.1-1.143.26-2.956-.848-.17.305-1.084-1.518-.8-1.207 1.238-.297 1.428-.43.518-1.676-.074-.904 1.6-.946-.677-2.03 1.126-.857-.427 1.576-3.57-.606-2.658-2.057-.857.727-1.6 2.34.17 1.332-2 .892-2.353 3.75-.858-.584 1.7.4 1.02zm151.28 147.63l.33-.665 2.413-.633 1.956-.096.877-.35 1.06.348-1.03.764-2.923 1.234-2.348.8-.05-.856zM647.13 357.155l-.246-2.906-2.1-.125-3.204-3.095-2.24-.384-3.1-1.8-1.994-.327-1.23.66-1.875-.103-1.994 2.017-2.464.68-.52-2.5.407-3.728-2.186-1.22.72-2.483-1.86-.212.62-3.094 2.645.905 2.463-1.18-2.042-2.23-.804-2.145-2.257.96-.286 2.733-.876-2.415 1.24-1.25 3.183-.785 1.895 1.056 1.962 2.932 1.44-.182 3.163-.05-.46-1.88 2.395-1.295 2.362-2.2 3.778 2.002.3 2.992 1.073.76 3.03-.17.94.674 1.38 3.8 3.206 2.507 1.83 1.695 2.932 1.75 3.73 1.52-.077 2.16-.845-.1-1.323-.94-.44 1.252-2.363.678-.56 2.785-1.58 1.052-2.213.52-.585 1.557-2.115.456zM502.1 374.94l-1.195-5.857-1.73-1.332-.024-.802-2.293-1.984-.247-2.527 1.728-1.887.66-2.812-.445-3.288.57-1.787 3.053-1.413 1.963.42-.082 1.768 2.378-1.285.2.672-1.402 1.705-.02 1.6.97.856-.37 2.96-1.846 1.704.533 1.836 1.45.057.705 1.592 1.067.52-.16 2.55-1.367.947-.863 1.053-1.925 1.262.298 1.35-.242 1.372zm76.912-38.087l4.022 1.435 3.266-.57 2.414.33 3.3-1.94 2.987-.177 2.7 1.827.476 1.3-.27 1.788 2.085.908 1.104 1.063-1.92 1.032.875 4.112-.55 1.1 1.534 2.822-1.344.6-.985-.892-3.26-.453-1.204.545-3.2.544-1.5-.06-3.227 1.3-2.307.01-1.492-.656-3.087.97-.917-.677-.152 1.938-1.5 1.512-1.03-1.566 1.062-1.304-1.7.296-2.345-.8-1.928 2-4.255.4-2.27-1.86-3.022-.117-.646 1.44-1.938.4-2.7-1.847-3.06.063-1.66-3.484-2.048-1.964 1.364-2.778-1.777-1.723 3.1-3.484 4.318-.147 1.178-2.806 5.344.5 3.37-2.416 3.267-1.06 4.64-.08zm-27.255 2.387l-2.34 1.976-.882-1.708.04-.76.666-.414.868-2.325-1.366-1 2.856-1.183 2.414.505.333 1.44 2.447 1.204-.5.9-3.33.204zm-249.185 94.252l1.6-.37.6.1-.112 2.1-2.34.3-.505-.255.813-.778zM816.95 393.52l-1.688 4.88-1.202 2.473-1.478-2.546-.32-2.25 1.65-2.998 2.244-2.328 1.28.918zm-246.386 72.765l.474.306 10.167 5.678.2 1.618 4.024 2.792-1.294 3.447.166 1.587 1.795 1.022.084.73-.772 1.696.16.855-.184 1.344.98 1.767 1.16 2.786 1.03.62-2.23 1.643-3.066 1.102-1.682-.046-1 .852-1.952.073-.732.36-3.37-.8-2.1.23-.785-3.857-1.514-2.1-2.75-.526-1.6-.848-1.782-.474-1.117-.472-1.172-.717-1.514-3.54-1.626-1.57-.56-1.626.28-1.455-.504-2.572 1.16-.133 1.018-1.012 1.1-1.455.692-.584-.026-.907-.604-.632-.162-1.098.8-.353.162-1.64-1.114-1.573.984-.334 3.074.036z"/><path d="M564.626 292.748l1.047.184.7-1.037.85.23 2.908-.442 1.8 2.575-.7.913.232 1.392 2.236.216.997 1.927-.06.868 3.56 1.542 2.152-.693 1.73 2.043 1.64-.046 4.133 1.408.033 1.263-1.14 2.233.62 2.327-.44 1.395-2.713.306-1.445 1.16-.1 1.832-2.238.328-1.866 1.322-2.625.215-2.415 1.513-1.324 1.03 1.488 1.47 1.372.963 2.86-.24-.548 1.418-3.07.685-3.807 2.272-1.56-.796.618-1.85-3.063-1.16.495-.763 3.163-1.636-.393-.816-.452.4-.446-.2-4.358-1.02-.193-1.514-2.598.5-1.04 2.228-2.17 2.956-1.272-.683-1.317.64-1.25-.733.706-.433.5-1.375.768-1.286-.198-.724.586-.324.276.56 1.652.12.743-.3-.523-.4.198-.607-.98-1.038-.405-1.717-1.02-.676.2-1.407-1.267-1.124-1.153-.157-2.067-1.3-1.863.417-.67.62-1.183-.001-.706.98-2.07.4-.957.64-1.302-1.018-1.798-.015-1.734-.464-1.2.895-.196-1.12-1.556-1.143.547-1.705.777-1.108.613.248-.723-1.925 2.546-3.6 1.4-.5.3-1.235-1.4-3.9 1.34-.175 1.536-1.225 2.173-.1 2.832.355 3.13 1.084 2.208.1 1.055.65 1.05-.783.735 1.05 2.53-.215 1.115.433.18-2.265.864-.995zm.224 173.752l-3.074-.036-.984.334-1.675.86-.68-.284.024-2.1.65-1.064.16-2.236.6-1.295 1.072-1.452 1.077-.74.902-1-1.124-.377.17-3.262 1.154-.76 1.783.624 2.257-.654 1.973.007 1.724-1.284 1.33 1.938.328 1.4 1.234 3.2-1.02 2.03-1.38 1.844-.803 1.128.028 2.952zM109.5 280.054l-1.542-1.834-2.47-1.57-.793-4.356-3.615-4.13-1.5-4.938-2.692-.343-4.458-.13-3.286-1.535-5.797-5.643-2.685-1.05-4.905-1.993-3.882.478-5.514-2.6-3.333-2.435-3.112 1.213.578 3.928-1.55.358-3.244 1.16-2.468 1.863-3.107 1.163-.4-3.245 1.26-5.53 2.98-1.77-.77-1.456-3.574 3.218-1.914 3.77-4.04 3.947 2.052 2.647-2.65 3.85-3.014 2.207-2.806 1.592-.694 2.287-4.377 2.634-.886 2.363-3.28 2.127-1.924-.38-2.617 1.377-2.845 1.67-2.332 1.626-4.812 1.377-.44-.8 3.067-2.268 2.743-1.513 3-2.7 3.478-.565 1.383-2.063L30.58 269l.626-1.032 2.07-1.833.484-4 1.426-3.174-3.233 1.636-.904-.927-1.518 1.954-1.83-2.73-.756 1.936-1.048-2.695-2.803 2.167-1.72-.004-.242-3.232.507-2.02-1.806-1.982-3.646 1.07-2.366-2.63-1.918-1.36-.012-3.25-2.16-2.483 1.085-3.405 2.286-3.368 1-3.154 2.27-.454 1.924.992 2.262-3.007 2.036.54 2.137-1.955-.52-2.917-1.57-1.163 2.076-2.52-1.722.075L20 225.5l-.854 1.434-2.2-1.432-3.966.73-4.106-1.563-1.177-2.654-3.548-3.906 3.94-2.867 6.254-3.407h2.305l-.382 3.484 5.918-.27-2.276-4.34-3.45-2.722-1.994-3.64-2.7-3.166-3.853-2.385 1.57-4.028 4.974-.253 3.54-3.585.667-3.917 2.864-3.9 2.73-.955 5.315-3.758 2.578.572 4.315-4.6 4.242 1.83 2.03 3.87L44 178.406l4.738.513-.168 1.95 4.3 1.428 2.86-.838 5.907 2.635 5.393.776 2.16 1.068 3.73-1.335 4.253 2.462L80.2 188.2l-.034 63.078 2.76.167 2.73 1.556 1.958 2.436 2.5 3.596 2.728-3.054 2.815-1.793 1.488 2.855 1.9 2.23 2.567 2.424 1.753 3.794 2.867 5.88 4.767 3.204.078 3.124zm175.93 34.435l-1.245-1.187-1.88.7-.932-1.083-2.14 3.097-.855 3.148-.995 1.82-1.2.616-.897.2-.28.978-5.167.003-4.26.027-1.265.726-2.87 2.73.287.544.166 1.506-2.103 1.27-2.297-.318-2.204-.143-1.328.44.25 1.152.055.373-2.416 2.265-2.115 1.1-1.443.506-1.66 1.035-2.03.496-1.398-.2-1.73-.772.96-1.45.617-1.32 1.318-2.1-.14-1.57-.505-2.24-1.037-.388-1.738 1.705-.557-.032-.144-.974 1.542-1.556.256-1.786-.228-1.794-2.075-1.552-2.383-.8-.392 1.518-.618.405-.496 1.953-.26-1.325-1.12.947-.7 1.32-.73 1.916-.14 1.645.93 2.376-.077 2.508-1.138 1.836-.568.518-.757.412-.953.02-.258-.253-.755-1.975-.022-.982.075-.937-.352-1.87.533-2.18.633-2.713 1.455-3.035-.422.014-2.06 2.543-.38-.464 1.1-1.422 1.672-2.573 1.907-.36 2.187-.804 2.3.442 2.47-.363-1.395-1.6-.752-.125-.855-.164-.6-1.14-2.755.356-2.488.905-1.975-1.55-1.6-.52.9-2.17-2.475 1.365-2.25 1.328-2.165 1.037-1.72-1.4-2.8.85.01-.6 1.903-1.73 2-1.654 2.86-1.375-3.45-1.1-2.27.545-2.72-1.303-2.863-.672-1.958-.26-.872-.718-.498-2.345-.95.02-.008 1.644-5.803-.003-27.538.003h-44.27l.954 3.466.448 3.4-.693 1.087-1.494-3.9-4.055-1.425-.34.82.817 1.938.886 3.525.506 5.416-.34 3.6-.34 3.535-1.096 3.614.895 2.898.098 3.202-.615 3.055 1.494 1.992.387 2.945 2.17 3 1.237 1.17-.1.817 2.335 4.85 2.72 3.452.34 1.866.715.547 2.605.333 1.003.913 1.573.17.307.965 1.308.4 1.817 1.92.472 1.696 3.186-.255 3.56-.36-.263.648 4.234 1.604 6.396 2.3 5.576-.023h2.223l.006-1.35h4.857l1.022 1.162 1.434 1.032 1.666 1.43.93 1.7.698 1.77 1.45.967 2.328.958 1.766-2.528 2.292-.063 1.976 1.28 1.407 2.184.97 1.86 1.654 1.797.617 2.195.785 1.466 2.187.963 2 .682 1.093-.093-.533-1.055-.14-1.495.028-2.16.645-1.416 1.53-1.5 2.787-1.37 2.552-2.367 2.36-.75 1.744-.225 2.04.743 2.445-.4 2.093 1.692 2.035.1 1.052-.606 1.04.472.534-.42-.595-.632.045-1.302-.505-.856 1.16-.504 2.138-.223 2.488.357 3.17-.406 1.758.8 1.36 1.502.502.16 2.83-1.46 1.094.494 2.186 2.682.785 1.75-.576 2.1.42 1.232 1.304 2.397 1.486 2.675 1.065.712.442 1.354 1.38.374.838-.4.7-1.887.122-1.207.088-2.102-1.328-3.646-.016-1.37-1.246-2.253-.936-2.745-.496-2.246.433-2.315 1.32-1.945 1.58-1.57 3.078-2.156.4-1.12 1.42-1.232 1.4-.215 1.843-1.98 2.9-1.006 1.782-2.534-.394-3.455-.3-1.205-.805-.24-.12-3.346-1.93-1.143 1.853.557-.598-2.26.54-1.552.33 2.974 1.432 1.356-.867 2.398.255.14 1.578-2.815.9-1.38-.042-1.35-.696-.64-.583-1.94.92.903.616.188.208.924 2.04-2.78.605-2.622-.825-.168.854-1.02-.083.452 1.786-.007 3.925-1.106-.83-.702-4.118.697 2.337-1.073 1.63-.184 1.22-.186 2.074-.65 1.347.073 1.893-.605.224-1.07-.84-.835.294 1.372-1.164-.094-.925-1.995.028-2.013.475-.86 1.484-2.283 2.96-1.146 2.88-1.344 2.994-1.9-.484-1.295-1.833-2.25zM45.872 264.04l-1.497.802-2.547 1.858.434 2.42 1.434 1.32 2.8-1.955 2.426-2.465-1.188-1.627zM.25 235.48l2.042-1.258.23-.677-2.273-.682zm8.502 15.362l-2.77.967 1.702 1.524 1.838 1.042 1.72-.867-.268-2.154zm97.343 32.5l-2.7.38-1.318-.62-.167 1.518.52 2.074 1.415 1.456 1.036 2.133 1.7 2.097 1.118.01-2.44-3.702zM37.38 404.026l-.997-.284-.274.256.025.186.322.243.483.627.94-.213.234-.357zm-2.995-.54l1.502.087.087-.323-1.38-.128zm5.9 3.3l-.498-.257-1.074-.5-.213-.055-.163.277.193.583-.487.483-.14.33.464 1.077-.08.825.696.422.4-.493.897-.46 1.096-.63.067-.164-.714-1.037zm-7.852-5.143l-.75.414.1.12.356.68.976.105.2.04.152-.173-.8-1zm-4.405-1.56l-.428.295-.145.22.944.548.333-.297-.058-.7zm285.902 151.97l1.82-.344 2.813 2.504 1.04-.095 2.886 2.1 2.2 1.815 1.622 2.248-1.236 1.578.776 1.895-1.213 2.118-3.167 1.886-2.07-.68-1.517.364-2.592-1.457-1.902.1-1.708-1.866.217-2.165.6-.742-.028-3.297.75-3.366z"/><path d="M662.012 351.206l.077-2.16-3.73-1.52-2.932-1.75-1.83-1.695-3.206-2.507-1.38-3.8-.94-.674-3.03.17-1.073-.76-.3-2.992-3.778-2.002-2.362 2.2-2.395 1.295.46 1.88-3.163.05-.1-14.127 7.218-2.347.524.346 4.346 2.837 2.294 1.484 2.678 3.498 3.288-.56 4.8-.302 3.356 2.807-.2 3.8 1.366.026.57 3.06 3.565.12.77 1.75 1.044-.024 1.227-2.65 3.698-2.6 1.608-.697.833.37-2.354 2.43 2.07 1.4 1.997-.927 3.323 1.954-3.6 2.645-2.133-.36-1.157.095-.4-1.02.584-1.7-3.75.858-.892 2.353-1.332 2-2.34-.17-.727 1.6 2.057.857.606 2.658-1.576 3.57-2.115-.74zm-386.512 79.4l-.08.672-1.646.33.914 1.3-.034 1.482-1.237 1.644 1.062 2.24 1.2-.184.63-2.04-.87-.996-.142-2.145 3.492-1.155-.4-1.34.984-.9 1.006 2 1.966.046 1.822 1.584.1.94 2.517.025 2.996-.292 1.606 1.27 2.144.35 1.573-.884.032-.713 3.473-.17 3.36-.04-2.38.837.958 1.337 2.242.212 2.126 1.4.447 2.26 1.46-.063 1.1.664-2.222 1.652-.245 1.025.96 1.042-.696.526-1.726.45.056 1.294-.76.77 1.898 2.124.37.8-1.025 1.066-3.136 1.046-2.017.433-.8.66-2.23-.698-2.076-.357-.526.257 1.255.724-.113 1.87.4 1.757 2.376.24.15.586-2.003.793-.325 1.18-1.155.457-2.085.65-.543.853-2.18.18-1.543-1.473-.855-2.78-.746-.974-1.017-.615 1.42-1.388-.097-.625-.797-.83-.564-1.856.22-2.005.626-.94.505-1.508-.992-.48-1.598.32-2.02-.15-1.133.3-1.973-2.413-1.63-.357-3.606.27-.668-.98-.7-.235-.098-.586.333-1.04-.222-1.133-.62-.62-.36-1.296-1.447-.2.777-1.652.343-2.02.815-1.053 1.085-.814.712-1.42zm502.96-28.478l-3.744 2.557-2.336 2.806-.616 2.05 2.144 3.098 2.622 3.815 2.544 1.794 1.704 2.324 1.285 5.323-.38 5.02-2.338 1.87-3.2 1.825-2.287 2.358-3.496 2.626-1.02-1.808.788-1.913-2.08-1.608 2.427-1.142 2.943-.206-1.23-1.72 4.713-2.2.345-3.426-.65-1.914.5-2.88-.706-2.043-2.12-2.02-1.768-2.568-2.33-3.465-3.36-1.762.805-1.063 1.792-.776-1.087-2.592-3.452-.023-1.26-2.717-1.638-2.376 1.505-.736 2.236.015 2.725-.35 2.4-1.615 1.352 1.138 2.563.552-.443 1.74 1.335 1.222zm167.655 108.025l-.925.382-.94-1.272.104-.777zm-2.066-4.435l.455 2.33-.754-.363-.584.157-.4-.8-.06-2.2zM624.4 416.6l-2.027.78-.543 1.288-.067.987-2.8 1.22-4.48 1.346-2.5 2.03-1.234.158-.84-.17-1.64 1.2-1.787.55-2.354.15-.708.163-.613.755-.735.2-.434.727-1.388-.063-.896.387-1.94-.145-.73-1.67.08-1.566-.458-.847-.548-2.128-.806-1.186.56-.14-.288-1.32.34-.56-.124-1.265 1.23-.927-.287-1.228.742-1.435 1.152.76.76-.264 3.236-.067.514.292 2.7.292 1.075-.146.7.972 1.3-.486 2-3.07 2.617-1.32 8.085-1.13 2.192 4.84zm-60.527 132.373l-.548.462-1.188 1.63-.782 1.658-1.6 2.327-3.17 3.382-1.98 1.984-2.117 1.514-2.93 1.297-1.43.174-.362.933-1.704-.497-1.388.64-3.04-.648-1.7.4-1.16-.176-2.892 1.33-2.394.535-1.732 1.282-1.275.082-1.187-1.2-.947-.062-1.208-1.507-.133.467-.373-.905.016-1.964-.9-2.23.905-.603-.073-2.527-1.836-3.053-1.413-2.746-2.013-4.153 1.343-1.567 1.107.867.473 1.358 1.258.232 1.763.603 1.506-.233 2.502-1.626.003-11.524.757.46 1.662 2.933-.258 1.893.625 1.096 2.008-.32 1.402-1.4 1.328-.935.687-1.482 1.368-.716 1.182.375 1.34.865 2.282.153 1.793-.72.284-.962.493-1.47 1.526-.246.843-1.15.934-2.032 2.517-2.265 3.967-2.222 1.14.033 1.357.5.945-.36 1.5.3 1.343 4.26.73 2.168-.5 3.428.24 1.1-1.415-.567-.8.22-.265.902-.766 1.167.026 1.078 1.673 1.697 1.64-.338.57-1.4 2.126.026-.7 2.28-.33 2.622-.726 1.433zm-7.13-.963l-1.224-.98-1.3.65-1.52 1.248-1.495 2.03 2.103 2.484 1.003-.322.516-1.033 1.563-.504.477-1.05.86-1.56zm10.602-58.54l1.324 1.26.713 2.402-.478.768-.563 2.302.538 2.36-.882.993-.85 2.66 1.474.744-8.508 2.37.266 2.055-2.124.396-1.597 1.154-.34 1.006-1.003.228-2.44 2.395-1.552 1.893-.947.068-.9-.338-3.134-.32-.504-.22-.02-.242-1.107-.66-1.817-.168-2.296.664-1.83-1.823-1.892-2.377.13-9.158 5.84.036-.24-.986.418-1.068-.493-1.336.32-1.38-.297-.88.968.07.16.883 1.314-.07 1.78.262.937 1.3 2.246.397 1.714-.898.63 1.492 2.15.398 1.033 1.216 1.15 1.573 2.146.024-.234-3.08-.77.518-1.96-1.108-.757-.507.347-2.85.498-3.35-.628-1.246.8-1.8.752-.337 3.766-.475 1.104.286 1.172.717 1.117.472 1.782.474z"/><path d="M562.96 527.252l-1.5-.3-.945.362-1.357-.51-1.14-.032-1.787-1.358-2.168-.46-.825-1.895-.007-1.05-1.2-.32-3.173-3.255-.882-1.706-.564-.525-1.08-2.344 3.134.32.91.338.947-.068 1.552-1.893 2.44-2.395 1.003-.228.34-1.006 1.597-1.154 2.124-.396.18 1.08 2.34-.058 1.3.612.605.718 1.334.21 1.457.934.006 3.695-.546 2.035-.12 2.203.45.876-.317 1.746-.424.27-.74 2.15z"/></g></g></svg>